<mxfile host="drawio-plugin" modified="2021-08-04T08:41:31.617Z" agent="5.0 (X11; Linux x86_64) AppleWebKit/537.36 (KHTML, like Gecko) Chrome/84.0.4147.105 Safari/537.36" etag="TbxdtNwhMAqYNXteDTdo" version="14.7.4" type="embed"><diagram id="dg084jeaLZCYdTuB9u0I" name="Page-1"><mxGraphModel dx="893" dy="1646" grid="0" gridSize="10" guides="1" tooltips="1" connect="1" arrows="1" fold="1" page="1" pageScale="1" pageWidth="850" pageHeight="1100" background="#F4F1DE" math="0" shadow="0"><root><mxCell id="0"/><mxCell id="1" parent="0"/><mxCell id="949NspwmGQxU725fRqvA-1" value="DATABASE" style="shape=cylinder3;whiteSpace=wrap;html=1;boundedLbl=1;backgroundOutline=1;size=15;rounded=0;sketch=0;strokeColor=#E07A5F;fillColor=#F2CC8F;fontColor=#393C56;" parent="1" vertex="1"><mxGeometry x="395" y="628" width="67.5" height="94" as="geometry"/></mxCell><mxCell id="949NspwmGQxU725fRqvA-5" value="" style="edgeStyle=orthogonalEdgeStyle;curved=0;rounded=1;sketch=0;orthogonalLoop=1;jettySize=auto;html=1;strokeColor=#E07A5F;fillColor=#F2CC8F;fontColor=#393C56;labelBackgroundColor=#F4F1DE;" parent="1" source="949NspwmGQxU725fRqvA-2" target="949NspwmGQxU725fRqvA-4" edge="1"><mxGeometry relative="1" as="geometry"/></mxCell><mxCell id="xYVlEia6IdGVw25vf1dU-39" style="edgeStyle=orthogonalEdgeStyle;rounded=0;orthogonalLoop=1;jettySize=auto;html=1;strokeColor=#E07A5F;fontColor=#393C56;labelBackgroundColor=#F4F1DE;" parent="1" source="949NspwmGQxU725fRqvA-2" target="xYVlEia6IdGVw25vf1dU-34" edge="1"><mxGeometry relative="1" as="geometry"/></mxCell><mxCell id="949NspwmGQxU725fRqvA-2" value="" style="shape=umlActor;verticalLabelPosition=bottom;verticalAlign=top;html=1;outlineConnect=0;rounded=0;sketch=0;strokeColor=#E07A5F;fillColor=#F2CC8F;fontColor=#393C56;" parent="1" vertex="1"><mxGeometry x="404.5" y="-24" width="47" height="94" as="geometry"/></mxCell><mxCell id="xYVlEia6IdGVw25vf1dU-51" style="edgeStyle=orthogonalEdgeStyle;rounded=0;orthogonalLoop=1;jettySize=auto;html=1;strokeColor=#E07A5F;fontColor=#393C56;labelBackgroundColor=#F4F1DE;" parent="1" source="949NspwmGQxU725fRqvA-4" target="xYVlEia6IdGVw25vf1dU-50" edge="1"><mxGeometry relative="1" as="geometry"/></mxCell><mxCell id="949NspwmGQxU725fRqvA-4" value="Pheidias" style="whiteSpace=wrap;html=1;aspect=fixed;rounded=0;sketch=0;strokeColor=#E07A5F;fillColor=#F2CC8F;fontColor=#393C56;" parent="1" vertex="1"><mxGeometry x="388" y="109" width="80" height="80" as="geometry"/></mxCell><mxCell id="949NspwmGQxU725fRqvA-7" value="" style="shape=image;verticalLabelPosition=bottom;verticalAlign=top;aspect=fixed;imageAspect=0;image=https://upload.wikimedia.org/wikipedia/commons/thumb/9/95/Vue.js_Logo_2.svg/1200px-Vue.js_Logo_2.svg.png;fillColor=#F2CC8F;strokeColor=#E07A5F;fontColor=#393C56;" parent="1" vertex="1"><mxGeometry x="455" y="75" width="54" height="46.83" as="geometry"/></mxCell><mxCell id="949NspwmGQxU725fRqvA-11" value="" style="shape=image;verticalLabelPosition=bottom;verticalAlign=top;aspect=fixed;imageAspect=0;image=https://kubernetes.io/images/favicon.png;fillColor=#F2CC8F;strokeColor=#E07A5F;fontColor=#393C56;" parent="1" vertex="1"><mxGeometry x="363" y="787" width="173" height="173" as="geometry"/></mxCell><mxCell id="949NspwmGQxU725fRqvA-22" value="" style="shape=image;verticalLabelPosition=bottom;verticalAlign=top;aspect=fixed;imageAspect=0;image=https://miro.medium.com/max/6844/1*BmvPfSSm2G8C-khX1rhCGg.png;fillColor=#F2CC8F;strokeColor=#E07A5F;fontColor=#393C56;" parent="1" vertex="1"><mxGeometry x="326" y="706" width="106" height="55.24" as="geometry"/></mxCell><mxCell id="xYVlEia6IdGVw25vf1dU-24" style="edgeStyle=orthogonalEdgeStyle;rounded=0;orthogonalLoop=1;jettySize=auto;html=1;strokeColor=#E07A5F;fontColor=#393C56;labelBackgroundColor=#F4F1DE;" parent="1" source="xYVlEia6IdGVw25vf1dU-3" target="949NspwmGQxU725fRqvA-1" edge="1"><mxGeometry relative="1" as="geometry"><Array as="points"><mxPoint x="241" y="532"/><mxPoint x="429" y="532"/></Array></mxGeometry></mxCell><mxCell id="xYVlEia6IdGVw25vf1dU-3" value="Herodotos" style="rounded=0;whiteSpace=wrap;html=1;fillColor=#F2CC8F;strokeColor=#E07A5F;fontColor=#393C56;" parent="1" vertex="1"><mxGeometry x="181.87" y="371" width="120" height="60" as="geometry"/></mxCell><mxCell id="xYVlEia6IdGVw25vf1dU-23" style="edgeStyle=orthogonalEdgeStyle;rounded=0;orthogonalLoop=1;jettySize=auto;html=1;strokeColor=#E07A5F;fontColor=#393C56;labelBackgroundColor=#F4F1DE;" parent="1" source="xYVlEia6IdGVw25vf1dU-4" target="949NspwmGQxU725fRqvA-1" edge="1"><mxGeometry relative="1" as="geometry"/></mxCell><mxCell id="xYVlEia6IdGVw25vf1dU-4" value="Sokrates" style="rounded=0;whiteSpace=wrap;html=1;fillColor=#F2CC8F;strokeColor=#E07A5F;fontColor=#393C56;" parent="1" vertex="1"><mxGeometry x="368.87" y="369" width="120" height="60" as="geometry"/></mxCell><mxCell id="xYVlEia6IdGVw25vf1dU-25" style="edgeStyle=orthogonalEdgeStyle;rounded=0;orthogonalLoop=1;jettySize=auto;html=1;strokeColor=#E07A5F;fontColor=#393C56;labelBackgroundColor=#F4F1DE;" parent="1" source="xYVlEia6IdGVw25vf1dU-5" target="949NspwmGQxU725fRqvA-1" edge="1"><mxGeometry relative="1" as="geometry"><Array as="points"><mxPoint x="608" y="532"/><mxPoint x="429" y="532"/></Array></mxGeometry></mxCell><mxCell id="xYVlEia6IdGVw25vf1dU-5" value="Alexandros" style="rounded=0;whiteSpace=wrap;html=1;fillColor=#F2CC8F;strokeColor=#E07A5F;fontColor=#393C56;" parent="1" vertex="1"><mxGeometry x="548.87" y="369" width="120" height="60" as="geometry"/></mxCell><mxCell id="xYVlEia6IdGVw25vf1dU-6" value="OPS" style="text;html=1;strokeColor=none;fillColor=none;align=center;verticalAlign=middle;whiteSpace=wrap;rounded=0;fontColor=#393C56;" parent="1" vertex="1"><mxGeometry x="42.54" y="844" width="40" height="20" as="geometry"/></mxCell><mxCell id="xYVlEia6IdGVw25vf1dU-14" value="" style="shape=image;verticalLabelPosition=bottom;verticalAlign=top;aspect=fixed;imageAspect=0;image=file:///home/joerivrij/Downloads/PngItem_5132146.png;fillColor=#F2CC8F;strokeColor=#E07A5F;fontColor=#393C56;" parent="1" vertex="1"><mxGeometry x="38" y="900" width="49.08" height="55" as="geometry"/></mxCell><mxCell id="xYVlEia6IdGVw25vf1dU-15" value="Achimedes" style="rounded=0;whiteSpace=wrap;html=1;fillColor=#F2CC8F;strokeColor=#E07A5F;fontColor=#393C56;" parent="1" vertex="1"><mxGeometry x="24" y="996" width="88" height="35" as="geometry"/></mxCell><mxCell id="xYVlEia6IdGVw25vf1dU-33" style="edgeStyle=orthogonalEdgeStyle;rounded=0;orthogonalLoop=1;jettySize=auto;html=1;entryX=1;entryY=0;entryDx=0;entryDy=31;entryPerimeter=0;strokeColor=#E07A5F;fontColor=#393C56;labelBackgroundColor=#F4F1DE;" parent="1" source="xYVlEia6IdGVw25vf1dU-16" target="949NspwmGQxU725fRqvA-1" edge="1"><mxGeometry relative="1" as="geometry"/></mxCell><mxCell id="xYVlEia6IdGVw25vf1dU-16" value="Demokritos" style="rounded=0;whiteSpace=wrap;html=1;fillColor=#F2CC8F;strokeColor=#E07A5F;fontColor=#393C56;" parent="1" vertex="1"><mxGeometry x="506" y="687" width="69" height="33" as="geometry"/></mxCell><mxCell id="xYVlEia6IdGVw25vf1dU-17" value="API" style="rounded=0;whiteSpace=wrap;html=1;fillColor=#F2CC8F;strokeColor=#E07A5F;fontColor=#393C56;" parent="1" vertex="1"><mxGeometry x="743" y="838" width="61" height="29" as="geometry"/></mxCell><mxCell id="xYVlEia6IdGVw25vf1dU-18" value="CLI" style="rounded=0;whiteSpace=wrap;html=1;fillColor=#F2CC8F;strokeColor=#E07A5F;fontColor=#393C56;" parent="1" vertex="1"><mxGeometry x="743" y="881" width="62" height="29" as="geometry"/></mxCell><mxCell id="xYVlEia6IdGVw25vf1dU-32" style="edgeStyle=orthogonalEdgeStyle;rounded=0;orthogonalLoop=1;jettySize=auto;html=1;entryX=1;entryY=0;entryDx=0;entryDy=31;entryPerimeter=0;strokeColor=#E07A5F;fontColor=#393C56;labelBackgroundColor=#F4F1DE;" parent="1" source="xYVlEia6IdGVw25vf1dU-19" target="949NspwmGQxU725fRqvA-1" edge="1"><mxGeometry relative="1" as="geometry"/></mxCell><mxCell id="xYVlEia6IdGVw25vf1dU-19" value="Herakleitos" style="rounded=0;whiteSpace=wrap;html=1;fillColor=#F2CC8F;strokeColor=#E07A5F;fontColor=#393C56;" parent="1" vertex="1"><mxGeometry x="506" y="595" width="69" height="33" as="geometry"/></mxCell><mxCell id="xYVlEia6IdGVw25vf1dU-30" style="edgeStyle=orthogonalEdgeStyle;rounded=0;orthogonalLoop=1;jettySize=auto;html=1;entryX=1;entryY=0;entryDx=0;entryDy=31;entryPerimeter=0;strokeColor=#E07A5F;fontColor=#393C56;labelBackgroundColor=#F4F1DE;" parent="1" source="xYVlEia6IdGVw25vf1dU-20" target="949NspwmGQxU725fRqvA-1" edge="1"><mxGeometry relative="1" as="geometry"/></mxCell><mxCell id="xYVlEia6IdGVw25vf1dU-20" value="Parmenides" style="rounded=0;whiteSpace=wrap;html=1;fillColor=#F2CC8F;strokeColor=#E07A5F;fontColor=#393C56;" parent="1" vertex="1"><mxGeometry x="506" y="643" width="69" height="33" as="geometry"/></mxCell><mxCell id="xYVlEia6IdGVw25vf1dU-21" value="Dataseeder" style="rounded=0;whiteSpace=wrap;html=1;fillColor=#F2CC8F;strokeColor=#E07A5F;fontColor=#393C56;" parent="1" vertex="1"><mxGeometry x="743" y="922" width="62" height="28" as="geometry"/></mxCell><mxCell id="xYVlEia6IdGVw25vf1dU-34" value="Ploutarchos" style="rounded=0;whiteSpace=wrap;html=1;fillColor=#F2CC8F;strokeColor=#E07A5F;fontColor=#393C56;" parent="1" vertex="1"><mxGeometry x="29" y="271" width="120" height="60" as="geometry"/></mxCell><mxCell id="xYVlEia6IdGVw25vf1dU-35" value="Docs" style="rounded=0;whiteSpace=wrap;html=1;fillColor=#F2CC8F;strokeColor=#E07A5F;fontColor=#393C56;" parent="1" vertex="1"><mxGeometry x="744" y="963" width="61" height="29.5" as="geometry"/></mxCell><mxCell id="xYVlEia6IdGVw25vf1dU-36" value="openapi.yaml" style="rounded=0;whiteSpace=wrap;html=1;fillColor=#F2CC8F;strokeColor=#E07A5F;fontColor=#393C56;" parent="1" vertex="1"><mxGeometry x="89" y="323" width="120" height="22" as="geometry"/></mxCell><mxCell id="xYVlEia6IdGVw25vf1dU-40" value="" style="shape=image;verticalLabelPosition=bottom;verticalAlign=top;aspect=fixed;imageAspect=0;image=https://encrypted-tbn0.gstatic.com/images?q=tbn:ANd9GcROL_69sJyzycET-E8796ECNiyhlQfmCMrAvA&amp;usqp=CAU;fillColor=#F2CC8F;strokeColor=#E07A5F;fontColor=#393C56;" parent="1" vertex="1"><mxGeometry x="18" y="321" width="24" height="24" as="geometry"/></mxCell><mxCell id="xYVlEia6IdGVw25vf1dU-41" value="" style="shape=image;verticalLabelPosition=bottom;verticalAlign=top;aspect=fixed;imageAspect=0;image=data:image/jpeg,/9j/4AAQSkZJRgABAQAAAQABAAD/2wCEAAoHCBYVFRgSFRUYGRgZGBwZHBkcHBgZHBoVGBwaGRoaGBgcIC4mHh8rHxgaJjgmLC8xNTU1HCQ7QDwzPy42NTEBDAwMEA8QHhISHjQhJSsxNDY0NDQ0NDQ3NDQ0NDQ9NDQ0NDQ/NDQ0NDQ0NDE0NDQ0NDQ0NDQ0NDQ0NDQ0NDQ0NP/AABEIAPAA0gMBIgACEQEDEQH/xAAcAAEAAgMBAQEAAAAAAAAAAAAABAYCAwUBBwj/xABEEAACAQIDBQYCCAMFBwUAAAABAgADEQQSIQUxQVFhBhMiMnGBUpEUI0JicoKhsQeSwVOiwtHSM0NUY7Pw8TRzg6Oy/8QAGQEBAAMBAQAAAAAAAAAAAAAAAAECAwQF/8QAJREBAQACAgIBBAIDAAAAAAAAAAECEQMhEjETBEFRYTJxFCJS/9oADAMBAAIRAxEAPwD7NERAREQEREBExJtqZwdo9rMNSuobvGH2U8WvIt5QfUwO/F58/wAX23rNcU6SIODMWc2/CMov7mcTGbYxFTz13t8KnIP7lj8yZPjVLnI+q1MSi73UepA/eZU6isLqwYcwQR8xPiGIw1M+J0Vj8TDN8yZ0uxGPOHxC2JFOq4Qpc5VDeFGCk2Bz29niywmcr7FERIXIiICIiAiIgIiICIiAiIgIiICIiAiJDx+NSihqVGsB7kngAN5J5CBLJlY2x2tp07pS+scaEg+FT1biegv1tKxtnb9XEErqlPggOrD77Df+Eaes5QAEtMfyyy5NekjaO0K2IP1zll+AeFB+UHX3vImQCbLzBwALk2HOX1Iytt9hmms6rqxty5k8gN5PSamxDNpTXT428vsN7ft1mS0QPEbs5Fsx5cgNwHQfrBr8tLIX1cWUbk58i/8Al+/DXjmKozjzIM6/iTxL+oElNNTi4K8DoZVaV9twlUMiuNzKCPQi83yv9hsV3mBw5JuVpim34qfgb9VMsEo6CIiAiIgIiICIiAiIgIiICIiAiIgaqrhVLE2ABJJ4Aakz5jtvajYioahJyC4ReS87fEd5+XCfSsbhhUpvTJIDqVJG8BhbSfHMfhq9Go9Cq4DKbqQls6X0dSWOnTgdPWcdbUz3rpI9JorYlE8zi/LefZRrIwpg+Znb1Nh8lsD7zOlTA0VVUdAB+0vthpsNV38i5B8T7/ZBr87TxMGL5nJcjUZtw9F3e++SESZkSdI21uZg0yaYOdII0O08XSDNdMamVXfQP4Z4m9GtSvqlZmA+7UAe/wDMWl2nyz+HuKyY16Z8tWkLfjQn/CZ9TlG8u49iIhJERAREQEREBERAREQEREBERAThdp9gJi6WXRai606lrlG/qp3EcRO7PDA+I1aTozU6iZHQ5XW99eanipGoP/iZJPofbDs936d9TH11MG24Z03mmx/UHgehM+dob6j/ACPoQdx6S+N2wzx0lIZkZqpNNt5dm1uJqcTewmp1kERmEwA3za4mFpC7DCYs0cThqw0CVlDHd4H8D39jPugnwpcC1c9wo1YWJ4KvFz0F/c2EvmG7aU8Opw1fvHrUmyXVCe8QAFKhY2UFlIvrvDTO2b02x9L1EpVH+IVM+bDYhdf+U2nOy1CZZ9lbUpYhO8pOGXceBVhvVlOqkcjCyfERAREQEREBERAREQEREBERAREQMSJ8x7ZbM7jEd4otTrknTctYasPzAZvUNzn0+cvtBspcTQeiTYkXVvhddVb2IEekWbmnykGxm8GRkzC6OtnRijryddD7cR0Im4PNZXNZpk5mJOkwdwN5kzAbPq1/9mlx8bXVB1zcfQXkZZSeyY2+kBpvwGzamIPgFk41GBy/l+M+mnMiWfA9mKaEGqe9fkRZB6Jx/MT7TvsgAAFunT0nPnzfbF0YcX5cvZ+zEoplRTc2ux1dzzY/sNwlQ7aBBiUCHxmmc45AN4CTz1eWPtB2iTD3poM9Yjwp8I+Jz9lZRKVBizO5zO5LO3Nj+wG4DkJXixyuXktnlJNMGoWUlc2YAkHMb39zYy8fw2rfX4hM3+7pOy8MxNRc3rZQPYSpXCgsxsBqTyE+j9hNjijSasbd5XIdrfZQCyIeoBJPUkcJ0Vnh3drZE8nsq0IiICIiAiIgIiICIiAiIgIiICImuo4UFibAAkk8AN5gUDtxsQrWTEpYLUIp1L3sG3U305nwn1WRsJ2XufHVJ6KuTTlckn9pz+0+3fpjWUkUB5Rqucjc7fuB7+nT2V2mp5FWqWV1ADHKSGIA8QIBGvKUz8pOkTwt/bt4HYlCmQy00JH2m8bezNe06lSottLkysV+1dJQcodyOSsL+hYAfrONiu1eIcZURKQ5nxvb08oPzmMwzyWtxn3XHHbRp0U7yq6ou7xEC55AcT0EqO1+1Lv4MPdU+Nh4jf4VPl9Tr0ErrUszmo7O7/G7Fj+Xgo6C0LVv5Bm+9uQW+8d/tebYcMn8lMuX/lkUCgsTvOZnY3JJ4sTNq1FRc7GwPPT00kNGZ2y00as44hGZFP3VUE+9ieoll2bskUmFSrh8RVqDUMaThE4HInA9TczaWRn4291hsnYT1WFaqMqDyUyNSeDv15Lw3791kobOenrRqGmb30AKE/eTcfUWMmYLFI+isLjepuHHqpsR8p0VQS0kqlyuP6acHtplsuJUJfQVFuUJ+9fye+nWd5SDrOM9G9xwPCc6pj3woCohqI7BEQsF7t2NguZvsHh8J03EWrljrtrhyeXVW2JxMM2NYAuMPT+79ZUPuQVH7yWMUyf7VQBp41N1udPEDquvHUdZntrp0IiJKCIiAiIgIiICIiAiIgJXu2zMMFVychm/9ssBU9smb2lhmFRQQQRcHQjpA+DM9mzEEgqApXWw4i3XnJSDTlLftrsrQOIp0qOaldXqPlN1CCyqqo11S7NfQbkYenp7Ep/xFb/6f9EvjusMtY3W1Jeq17KjMfYD5sRMKtRh5mRL7h52PoNBf5y+r2Ko/aao3q5X9EyzpYTs/Rp+RFU8SBqfVt5k+NV8sXznDbLqVbMEbL8dXRfy0xvPqB6yzdnuzS1mOds6UzlY7gXFiURenEm++wsbkWPH0lp03qHciMx9FBM4+3kqYbY7d1cOaal2XQhqjA1X6HxMb8JXLprx6yW3BYnDKe4ptTUj7ClQfkN86Qn5RxFdVFJ6LVe+8TOTZQr5vB3RU3tl334z9QbGLmhSNTzmmpf8RUXlJWtj3H7Np1gM66jyuNHU81Yag/vxnDw+JdKrYep50AZX4VKZ0D9GB0I567iJaZwu09AZUr7mp1FF+aVGFNlPS7K35BLY3VZ54yxJU3F5F2jhVqIyNuYWuN4PAg8wdfabcM3hnA7R9p1wzd0q5nyhtTZQDcC9tSdDpNrrXbmm99LRsTFGpRUt51JRuroSpI6G2YdDJzoCCCAQRYg7iDvBE+X7A7YutazqpSrVQMAGBUvkphlJJvwJFtdZ9TmFmnXjdx817N7exSbWrbLqMalJQxQsBmRAA6WbewysFN7m/GfS5xNnYemcViaoRc4KU2a3i0po+XNys66ek7ciLUiJGxGKRCqsbFjZRYm50HD1ElCTERAREQEREBERAREQK61O+LqueFOkg9jUY/8A7Hyk60juLYioOaU2/wCov+GSZth6cnL/ACpERLs3P25hy+HrU13tTdR6lSBOjs8JVw6ZlDI9NbqdQVZRoee+eTmbHxH0eocJU0VmLUG4ZSbmnfmCTYcvSZck+7o4cvcY4bsHgKdQVVw65gQygliqsNxCk2FpZ7RPZm3eSv8AbGp9QqDzVK1JVHOzq7f3UY+07ruACSbAaknlKZicZ9LxCsmtGlfI1tHqNoXXmoGgPHM0e7pGV1Np+IxfdU89rklUVfid2CIvS5I14SPtDsZTr+N6r96bZnFsthuUIRYKOHHmTJO1MKz0SqWDqUdL7s6OrqD0JUA+sxobZxDv3K4Xu6mXMS9RCgW9iwyXZteFh6iTyeW5pnxSWXftHwfYTDJdmzu32WZrZDwZAtgGHBt45zdsLtCXorTPjxKu9IqOJpO1M1X+BDlzXPoLmwnKpbWxteuuFWrh6ZdKzZhTdmRaNXuWy/WWZjvF7W5G0uGydmJhqa0qYNhvJ1ZmJuzOeLEkknrKTba6nTLZuE7tbE3djmdrWzOQAT6WAA5AAcJOnM21tHuKRqAZmuFVRclmPQamwuxtwUzDD42oyB1FOqhFwUbKSPuhrqfdhLIdWQtpVSqqdAM4DMRfItj4reoAvwzX4RTxyuGCauoJ7tro1+FwRcAnTNqPWNm1KjJequVrnhl8PC65mseG/hfS9oGeBqllJJvYkBrZcyjc1v0vuNrjQyXEQEREBERAREQERPDA4u0bLiKbXHjRkI4kr4109M8kSlYgNUr1augrU8QchcmyqjWFO41VXTl8d7HdO2naOkule9E7vH5D+GoPCfQkHpNsep25OSy5WR2omqhiUcZkdWB4qQRb2m2WUJrxFBXUo6hlPA/05HrNkRSIdJa9IWSoKijctW+YDl3g1P5gT1mDbWxO76PTB61G/wBE6E8lfCNJy5RwsRha+INsQwyf2SAqp/Gbkv6aDmJ08NhFQAAbt3SSokzGRW53L2xKyDjsK7MtSk4R1BUMVzqVaxKutwSLqDoQdJPMxaLN9UmVl3FV2JsN6GMpVqlbOzGogAXIqowqVXspJuWexJvwEv8AK7XrIlakzMFVc7EsQAAEy3JO7zTs/S0NM1VYMoUtmUgggC5sR6THKSXUdOGVym6gg95iGP2aICjl3rjMx9kKi/32ntfZSkl0ZqTnUslhmPNlIKsepBPWQMDtAqvdomep56hJyotR/GVL2NyM24A2GW9riZ4nH1UUu9SiijUkqzAfmLr+0r5Se2nx5XuNe06GIHdsaiErVphStNlezOoYZu8IClb5tN19OVmld2XiziGpMw0VTVJtlBzZkpHKSSMy5nsTcaSxSUdzqvYiICIiAiIgIiICeGeyJtHHJQptVqNlRBcnpApHaagPpqmk5pu1ItVsAytZlSlnTmfGLggkIOQmzCM5BWoFvuuvlcc8p1Hob7t5mvAU2qM+KdSHrENY70prpTQ+gJY9XadNEnVx42Y9vN585crpx32RTzZ0U034tSY0yfULo3uDJdDF4mnazrWUC1qgCP650GU+mT3EmtTE1MglrhGc5cokYfb6EhKoak50Ae2Un7ri6t6Xv0nXVgdRK3WpKRlZQykaggEH1Eg4d6mHYvRLOgGtAm+n/KY6g/dJsekpcbGuOcy99LpEibNx6V0FRGup9iGGhVgdQQdCDukuRF6SNtDE93Tepa+RGa34QT/SSZE2rSz0aifEjr81Iik9qTjts4lPGa9jxUImQHiAPNb1M5zdrsTVuhqooCFy1NQHsCBYliQu/lIOPxa1UUG2qjwEEsdLkZBqbcpDpdm8RU8YK0lIK5St2Kkg5io8u7d79Jlle+m2ON12zXab1XYVHFQI9lLnMyoyKRZbBc1z595l+7MvfZ+KI3Z64X+UA7vvXPvKPs/YRAVs4s7qL5dLM6optm5W+Vp9Wp7HWhg6mHQkkpUJY2BZ3DEsQNBqd3ASuXrtph3dz+nI2Zs4MatTvKi569W6q9l8Dsg0tp4UG60Y3B0lOTIWsMzsSzuEJyhULEkO7eEWt9o7xN+BZ0VxkbV3qK58KFKpNTMXOigFyCN/hOh0vK2JhO8IqEkorZgSMve1f7TKdQijRB0vwBmMxtvbqucmMkdTZGENNLvbO5zPbcCQAFHRVAHtedKImrEiIgIiICIiAiIgeSldrG7/ABFPCHyU1Fd1+NsxWmrdLqzewl1lIcE4zFOeD00H4VpI4/V2luObykrLnyuOFsS0FplmnnSY9Z3PJZsZgRCmYuTvgR2a4vI9DEKSQCLg2I62vb5EGc/ZeNvnoWZ6iO4KqCzZCxZCeQysupnmCwpGJqO6MhCoQrZdM4KlgFJ3hANevOY+c3JHR8dktvpPw+LGGrh7HJW8LhQSRWUEo4UC5zKCD+FeZljXaKEX8f8AI4/dZU9uI3dsyedBnX8aeNf1FveXrZdYPTV13MoYehF5z83JcMup7dPBjM8e/cQjtBOZ+TX+Vp59PU7lqN6Uqh/wztxaZf5F/Db4cVdfB5iSuHYE72IRL+tzm/SaMZRp0EapiKioqqWKoSWKqCTrbMdBuUA9ZaZwe2JUYSqp0NVRRuN/1pFPQ9AxPtKfLlldLTCY9qZhMGXFCklqbPUFQDKCECsaxUqpF1FguhG8S4bW2u9Kky1EUu4yUypOV6r2VVIOqG7A210B10nJ2Fsk1neqtR6YpgUkZMvm0aobMCrDRF3aFWnm0qbpWao9Z664WmaioVpopxNS6UUBUC7WzbzpnQzbPe9T0cU/13fd7dDZGF+kEo5zUcMVoqn2alWkozu/xBWsoU6XViQdLWyc7YuA7iglK92UXdt2aoxLVHNuLMWPvOjCxERAREQEREBERAREQPJUsQmXE4j7zo/saaLf5oflLaZUttkrjVHCpQuPxUn8X6VVl+O6yjD6ib46yvPGHCAZ7O15bEC2kMZ6DxngECLSJo1TXRM2ZcjquUMwGqsLkAldRbkx5AHWrtUqPXZSmcKiqSL5EzWJtpclm/STGE1sLCZfHj5eTb5srh4fZHxKgqQeKkfMTtdiyTgsMW3mihP8onDxz5Ueodyox+Sky27Jwwp0adMfYRV/lUCcn1f2df0fqpsRNdWsqjMzBRzJAH6zkdjZKT2wx2asmHQ3KeMjeO8ZSEzdFTO7cQMvMSwvtXMD3KGobXzeWn6modGH4c05PYfZ4aiuNqeOtXDOzndlc3ARbeFSoXrYKCTYTTine0ZTc024DbCUcOi08PiXUKMpWk16hOubXdmJzXNt8hKhaphaVRcr4iq+Lqo2/wCqVWRPVGNEf/HLGdnshvQYAf2beT8hGqe11+7Im0HVgpqK9J0bOtTLmVGAIJzLdcpBKkNa4J3G03Rt34nK2BtM16WdlykOyG2qsVNs6HijCxHrbhOrAREQEREBERAREQEREDyV3tYoUUaxsMlUJfmtUGnl/nKH8ssUqv8AEUH6ExW11qUWF+lVJM6u1c5vGxpzTMNNV+E8Z7Tu28fTa5gGY757aSh7aeuBa0wd7SDtHaApJnYFiTlRF1Z3O5VHP9tSdBItkTMbb09rp31anhF4kVKlvs0kYHX8bAL6ZuUvKiUTs539HvHagHq1SGdy4CqAPDTXQnKoJ4am54zrPjMW39lTHMZqh9gQvznm8sy5MtydPW4pjx4ybWa8gY6tQQq1UpmHlzZS2vBb68OEr1XDVXPjr1GHEAimPbIAf1kPFUhSASko72o2RNNWY8WO8gbyZWcN91b5Jeo7r1nxqtTpZqdElkaqRldgDlZaSnUG4ILm1uAO8dzD0FpotNQFVQFVRuCqLAD2EwwGFFKmlIblULfibC1z1MlS8xmPpfZERLIIiICIiAiIgIiICIiAiIgeSsduqoNGnQJ1rV6agcwjd6392mfnLI7gAk6AC5PSfPdoY36TiBiDcUqSstHf4y9g9UjqAAvQk/alsZuqcl1jUutiFUXPQAAEkngABvPSQ8RjHRkNShUUObLcDU6aebQ66A6mWbs/skr9fVH1h8oP+7Q8PxHj8uGvWx2GSojI6hlI1B/70PWaZct3058Ppp49+1N+mWGqVFPMo4HztaYDaF9Ajt6I5/ZZ2dktfC0XfxsyIbnecwvc9bTDZ2Jq1E7xcOSpZgpV08SBiA1mIte0jHm2jL6XX7co067+VAg4Fwf0QEH5kSVs/Y+V+8di72tnb7IO8Ig0QempsLk2nUY1f+HqE9Go/wBXmLVq40GEqH89AD3OeTcpfdTjxXH1G5UEwY3kZ6GOfy06CbvPUdj8kT+s209gVH/9RW0+CiGpg/icksfbLK3OLziyvtDxO0UQmmLu/BF5/ebcu7iZN7M7PBAxjNmeqgK7wtOm1mCIDrfdmJ1JHC1hyKOGTD5qNRcgDsUqHyOhJK3c/bsQDc3Nr6zudmcSvdmmCCEdlUjUFT4hY9M2X8sy8rbqt8eOYzcd6JjmE9kpexEQEREBERAREQEREBERAREQI2Mwq1Uam18rAg2NjY9ZCwmwqVNg/idgbgsQbHmAABfra86sQiyV7MHW4I5iZxCVTTZmJVBh0C5FGRalwCqbvJxYDduH7mwYRQiLTVMqqoVVG4KosAJLiVk0m3bAOJkGE9tFpZBeezy09gYkXmPdDlNkQNfdCZZRMogIiICIiAiIgIiICIiB/9k=;fillColor=#F2CC8F;strokeColor=#E07A5F;fontColor=#393C56;" parent="1" vertex="1"><mxGeometry x="285.87" y="412" width="33.26" height="38" as="geometry"/></mxCell><mxCell id="xYVlEia6IdGVw25vf1dU-42" value="" style="shape=image;verticalLabelPosition=bottom;verticalAlign=top;aspect=fixed;imageAspect=0;image=data:image/jpeg,/9j/4AAQSkZJRgABAQAAAQABAAD/2wCEAAoHCBYVFRgSFRUYGRgZGBwZHBkcHBgZHBoVGBwaGRoaGBgcIC4mHh8rHxgaJjgmLC8xNTU1HCQ7QDwzPy42NTEBDAwMEA8QHhISHjQhJSsxNDY0NDQ0NDQ3NDQ0NDQ9NDQ0NDQ/NDQ0NDQ0NDE0NDQ0NDQ0NDQ0NDQ0NDQ0NDQ0NP/AABEIAPAA0gMBIgACEQEDEQH/xAAcAAEAAgMBAQEAAAAAAAAAAAAABAYCAwUBBwj/xABEEAACAQIDBQYCCAMFBwUAAAABAgADEQQSIQUxQVFhBhMiMnGBUpEUI0JicoKhsQeSwVOiwtHSM0NUY7Pw8TRzg6Oy/8QAGQEBAAMBAQAAAAAAAAAAAAAAAAECAwQF/8QAJREBAQACAgIBBAIDAAAAAAAAAAECEQMhEjETBEFRYTJxFCJS/9oADAMBAAIRAxEAPwD7NERAREQEREBExJtqZwdo9rMNSuobvGH2U8WvIt5QfUwO/F58/wAX23rNcU6SIODMWc2/CMov7mcTGbYxFTz13t8KnIP7lj8yZPjVLnI+q1MSi73UepA/eZU6isLqwYcwQR8xPiGIw1M+J0Vj8TDN8yZ0uxGPOHxC2JFOq4Qpc5VDeFGCk2Bz29niywmcr7FERIXIiICIiAiIgIiICIiAiIgIiICIiAiJDx+NSihqVGsB7kngAN5J5CBLJlY2x2tp07pS+scaEg+FT1biegv1tKxtnb9XEErqlPggOrD77Df+Eaes5QAEtMfyyy5NekjaO0K2IP1zll+AeFB+UHX3vImQCbLzBwALk2HOX1Iytt9hmms6rqxty5k8gN5PSamxDNpTXT428vsN7ft1mS0QPEbs5Fsx5cgNwHQfrBr8tLIX1cWUbk58i/8Al+/DXjmKozjzIM6/iTxL+oElNNTi4K8DoZVaV9twlUMiuNzKCPQi83yv9hsV3mBw5JuVpim34qfgb9VMsEo6CIiAiIgIiICIiAiIgIiICIiAiIgaqrhVLE2ABJJ4Aakz5jtvajYioahJyC4ReS87fEd5+XCfSsbhhUpvTJIDqVJG8BhbSfHMfhq9Go9Cq4DKbqQls6X0dSWOnTgdPWcdbUz3rpI9JorYlE8zi/LefZRrIwpg+Znb1Nh8lsD7zOlTA0VVUdAB+0vthpsNV38i5B8T7/ZBr87TxMGL5nJcjUZtw9F3e++SESZkSdI21uZg0yaYOdII0O08XSDNdMamVXfQP4Z4m9GtSvqlZmA+7UAe/wDMWl2nyz+HuKyY16Z8tWkLfjQn/CZ9TlG8u49iIhJERAREQEREBERAREQEREBERAThdp9gJi6WXRai606lrlG/qp3EcRO7PDA+I1aTozU6iZHQ5XW99eanipGoP/iZJPofbDs936d9TH11MG24Z03mmx/UHgehM+dob6j/ACPoQdx6S+N2wzx0lIZkZqpNNt5dm1uJqcTewmp1kERmEwA3za4mFpC7DCYs0cThqw0CVlDHd4H8D39jPugnwpcC1c9wo1YWJ4KvFz0F/c2EvmG7aU8Opw1fvHrUmyXVCe8QAFKhY2UFlIvrvDTO2b02x9L1EpVH+IVM+bDYhdf+U2nOy1CZZ9lbUpYhO8pOGXceBVhvVlOqkcjCyfERAREQEREBERAREQEREBERAREQMSJ8x7ZbM7jEd4otTrknTctYasPzAZvUNzn0+cvtBspcTQeiTYkXVvhddVb2IEekWbmnykGxm8GRkzC6OtnRijryddD7cR0Im4PNZXNZpk5mJOkwdwN5kzAbPq1/9mlx8bXVB1zcfQXkZZSeyY2+kBpvwGzamIPgFk41GBy/l+M+mnMiWfA9mKaEGqe9fkRZB6Jx/MT7TvsgAAFunT0nPnzfbF0YcX5cvZ+zEoplRTc2ux1dzzY/sNwlQ7aBBiUCHxmmc45AN4CTz1eWPtB2iTD3poM9Yjwp8I+Jz9lZRKVBizO5zO5LO3Nj+wG4DkJXixyuXktnlJNMGoWUlc2YAkHMb39zYy8fw2rfX4hM3+7pOy8MxNRc3rZQPYSpXCgsxsBqTyE+j9hNjijSasbd5XIdrfZQCyIeoBJPUkcJ0Vnh3drZE8nsq0IiICIiAiIgIiICIiAiIgIiICImuo4UFibAAkk8AN5gUDtxsQrWTEpYLUIp1L3sG3U305nwn1WRsJ2XufHVJ6KuTTlckn9pz+0+3fpjWUkUB5Rqucjc7fuB7+nT2V2mp5FWqWV1ADHKSGIA8QIBGvKUz8pOkTwt/bt4HYlCmQy00JH2m8bezNe06lSottLkysV+1dJQcodyOSsL+hYAfrONiu1eIcZURKQ5nxvb08oPzmMwzyWtxn3XHHbRp0U7yq6ou7xEC55AcT0EqO1+1Lv4MPdU+Nh4jf4VPl9Tr0ErrUszmo7O7/G7Fj+Xgo6C0LVv5Bm+9uQW+8d/tebYcMn8lMuX/lkUCgsTvOZnY3JJ4sTNq1FRc7GwPPT00kNGZ2y00as44hGZFP3VUE+9ieoll2bskUmFSrh8RVqDUMaThE4HInA9TczaWRn4291hsnYT1WFaqMqDyUyNSeDv15Lw3791kobOenrRqGmb30AKE/eTcfUWMmYLFI+isLjepuHHqpsR8p0VQS0kqlyuP6acHtplsuJUJfQVFuUJ+9fye+nWd5SDrOM9G9xwPCc6pj3woCohqI7BEQsF7t2NguZvsHh8J03EWrljrtrhyeXVW2JxMM2NYAuMPT+79ZUPuQVH7yWMUyf7VQBp41N1udPEDquvHUdZntrp0IiJKCIiAiIgIiICIiAiIgJXu2zMMFVychm/9ssBU9smb2lhmFRQQQRcHQjpA+DM9mzEEgqApXWw4i3XnJSDTlLftrsrQOIp0qOaldXqPlN1CCyqqo11S7NfQbkYenp7Ep/xFb/6f9EvjusMtY3W1Jeq17KjMfYD5sRMKtRh5mRL7h52PoNBf5y+r2Ko/aao3q5X9EyzpYTs/Rp+RFU8SBqfVt5k+NV8sXznDbLqVbMEbL8dXRfy0xvPqB6yzdnuzS1mOds6UzlY7gXFiURenEm++wsbkWPH0lp03qHciMx9FBM4+3kqYbY7d1cOaal2XQhqjA1X6HxMb8JXLprx6yW3BYnDKe4ptTUj7ClQfkN86Qn5RxFdVFJ6LVe+8TOTZQr5vB3RU3tl334z9QbGLmhSNTzmmpf8RUXlJWtj3H7Np1gM66jyuNHU81Yag/vxnDw+JdKrYep50AZX4VKZ0D9GB0I567iJaZwu09AZUr7mp1FF+aVGFNlPS7K35BLY3VZ54yxJU3F5F2jhVqIyNuYWuN4PAg8wdfabcM3hnA7R9p1wzd0q5nyhtTZQDcC9tSdDpNrrXbmm99LRsTFGpRUt51JRuroSpI6G2YdDJzoCCCAQRYg7iDvBE+X7A7YutazqpSrVQMAGBUvkphlJJvwJFtdZ9TmFmnXjdx817N7exSbWrbLqMalJQxQsBmRAA6WbewysFN7m/GfS5xNnYemcViaoRc4KU2a3i0po+XNys66ek7ciLUiJGxGKRCqsbFjZRYm50HD1ElCTERAREQEREBERAREQK61O+LqueFOkg9jUY/8A7Hyk60juLYioOaU2/wCov+GSZth6cnL/ACpERLs3P25hy+HrU13tTdR6lSBOjs8JVw6ZlDI9NbqdQVZRoee+eTmbHxH0eocJU0VmLUG4ZSbmnfmCTYcvSZck+7o4cvcY4bsHgKdQVVw65gQygliqsNxCk2FpZ7RPZm3eSv8AbGp9QqDzVK1JVHOzq7f3UY+07ruACSbAaknlKZicZ9LxCsmtGlfI1tHqNoXXmoGgPHM0e7pGV1Np+IxfdU89rklUVfid2CIvS5I14SPtDsZTr+N6r96bZnFsthuUIRYKOHHmTJO1MKz0SqWDqUdL7s6OrqD0JUA+sxobZxDv3K4Xu6mXMS9RCgW9iwyXZteFh6iTyeW5pnxSWXftHwfYTDJdmzu32WZrZDwZAtgGHBt45zdsLtCXorTPjxKu9IqOJpO1M1X+BDlzXPoLmwnKpbWxteuuFWrh6ZdKzZhTdmRaNXuWy/WWZjvF7W5G0uGydmJhqa0qYNhvJ1ZmJuzOeLEkknrKTba6nTLZuE7tbE3djmdrWzOQAT6WAA5AAcJOnM21tHuKRqAZmuFVRclmPQamwuxtwUzDD42oyB1FOqhFwUbKSPuhrqfdhLIdWQtpVSqqdAM4DMRfItj4reoAvwzX4RTxyuGCauoJ7tro1+FwRcAnTNqPWNm1KjJequVrnhl8PC65mseG/hfS9oGeBqllJJvYkBrZcyjc1v0vuNrjQyXEQEREBERAREQERPDA4u0bLiKbXHjRkI4kr4109M8kSlYgNUr1augrU8QchcmyqjWFO41VXTl8d7HdO2naOkule9E7vH5D+GoPCfQkHpNsep25OSy5WR2omqhiUcZkdWB4qQRb2m2WUJrxFBXUo6hlPA/05HrNkRSIdJa9IWSoKijctW+YDl3g1P5gT1mDbWxO76PTB61G/wBE6E8lfCNJy5RwsRha+INsQwyf2SAqp/Gbkv6aDmJ08NhFQAAbt3SSokzGRW53L2xKyDjsK7MtSk4R1BUMVzqVaxKutwSLqDoQdJPMxaLN9UmVl3FV2JsN6GMpVqlbOzGogAXIqowqVXspJuWexJvwEv8AK7XrIlakzMFVc7EsQAAEy3JO7zTs/S0NM1VYMoUtmUgggC5sR6THKSXUdOGVym6gg95iGP2aICjl3rjMx9kKi/32ntfZSkl0ZqTnUslhmPNlIKsepBPWQMDtAqvdomep56hJyotR/GVL2NyM24A2GW9riZ4nH1UUu9SiijUkqzAfmLr+0r5Se2nx5XuNe06GIHdsaiErVphStNlezOoYZu8IClb5tN19OVmld2XiziGpMw0VTVJtlBzZkpHKSSMy5nsTcaSxSUdzqvYiICIiAiIgIiICeGeyJtHHJQptVqNlRBcnpApHaagPpqmk5pu1ItVsAytZlSlnTmfGLggkIOQmzCM5BWoFvuuvlcc8p1Hob7t5mvAU2qM+KdSHrENY70prpTQ+gJY9XadNEnVx42Y9vN585crpx32RTzZ0U034tSY0yfULo3uDJdDF4mnazrWUC1qgCP650GU+mT3EmtTE1MglrhGc5cokYfb6EhKoak50Ae2Un7ri6t6Xv0nXVgdRK3WpKRlZQykaggEH1Eg4d6mHYvRLOgGtAm+n/KY6g/dJsekpcbGuOcy99LpEibNx6V0FRGup9iGGhVgdQQdCDukuRF6SNtDE93Tepa+RGa34QT/SSZE2rSz0aifEjr81Iik9qTjts4lPGa9jxUImQHiAPNb1M5zdrsTVuhqooCFy1NQHsCBYliQu/lIOPxa1UUG2qjwEEsdLkZBqbcpDpdm8RU8YK0lIK5St2Kkg5io8u7d79Jlle+m2ON12zXab1XYVHFQI9lLnMyoyKRZbBc1z595l+7MvfZ+KI3Z64X+UA7vvXPvKPs/YRAVs4s7qL5dLM6optm5W+Vp9Wp7HWhg6mHQkkpUJY2BZ3DEsQNBqd3ASuXrtph3dz+nI2Zs4MatTvKi569W6q9l8Dsg0tp4UG60Y3B0lOTIWsMzsSzuEJyhULEkO7eEWt9o7xN+BZ0VxkbV3qK58KFKpNTMXOigFyCN/hOh0vK2JhO8IqEkorZgSMve1f7TKdQijRB0vwBmMxtvbqucmMkdTZGENNLvbO5zPbcCQAFHRVAHtedKImrEiIgIiICIiAiIgeSldrG7/ABFPCHyU1Fd1+NsxWmrdLqzewl1lIcE4zFOeD00H4VpI4/V2luObykrLnyuOFsS0FplmnnSY9Z3PJZsZgRCmYuTvgR2a4vI9DEKSQCLg2I62vb5EGc/ZeNvnoWZ6iO4KqCzZCxZCeQysupnmCwpGJqO6MhCoQrZdM4KlgFJ3hANevOY+c3JHR8dktvpPw+LGGrh7HJW8LhQSRWUEo4UC5zKCD+FeZljXaKEX8f8AI4/dZU9uI3dsyedBnX8aeNf1FveXrZdYPTV13MoYehF5z83JcMup7dPBjM8e/cQjtBOZ+TX+Vp59PU7lqN6Uqh/wztxaZf5F/Db4cVdfB5iSuHYE72IRL+tzm/SaMZRp0EapiKioqqWKoSWKqCTrbMdBuUA9ZaZwe2JUYSqp0NVRRuN/1pFPQ9AxPtKfLlldLTCY9qZhMGXFCklqbPUFQDKCECsaxUqpF1FguhG8S4bW2u9Kky1EUu4yUypOV6r2VVIOqG7A210B10nJ2Fsk1neqtR6YpgUkZMvm0aobMCrDRF3aFWnm0qbpWao9Z664WmaioVpopxNS6UUBUC7WzbzpnQzbPe9T0cU/13fd7dDZGF+kEo5zUcMVoqn2alWkozu/xBWsoU6XViQdLWyc7YuA7iglK92UXdt2aoxLVHNuLMWPvOjCxERAREQEREBERAREQPJUsQmXE4j7zo/saaLf5oflLaZUttkrjVHCpQuPxUn8X6VVl+O6yjD6ib46yvPGHCAZ7O15bEC2kMZ6DxngECLSJo1TXRM2ZcjquUMwGqsLkAldRbkx5AHWrtUqPXZSmcKiqSL5EzWJtpclm/STGE1sLCZfHj5eTb5srh4fZHxKgqQeKkfMTtdiyTgsMW3mihP8onDxz5Ueodyox+Sky27Jwwp0adMfYRV/lUCcn1f2df0fqpsRNdWsqjMzBRzJAH6zkdjZKT2wx2asmHQ3KeMjeO8ZSEzdFTO7cQMvMSwvtXMD3KGobXzeWn6modGH4c05PYfZ4aiuNqeOtXDOzndlc3ARbeFSoXrYKCTYTTine0ZTc024DbCUcOi08PiXUKMpWk16hOubXdmJzXNt8hKhaphaVRcr4iq+Lqo2/wCqVWRPVGNEf/HLGdnshvQYAf2beT8hGqe11+7Im0HVgpqK9J0bOtTLmVGAIJzLdcpBKkNa4J3G03Rt34nK2BtM16WdlykOyG2qsVNs6HijCxHrbhOrAREQEREBERAREQEREDyV3tYoUUaxsMlUJfmtUGnl/nKH8ssUqv8AEUH6ExW11qUWF+lVJM6u1c5vGxpzTMNNV+E8Z7Tu28fTa5gGY757aSh7aeuBa0wd7SDtHaApJnYFiTlRF1Z3O5VHP9tSdBItkTMbb09rp31anhF4kVKlvs0kYHX8bAL6ZuUvKiUTs539HvHagHq1SGdy4CqAPDTXQnKoJ4am54zrPjMW39lTHMZqh9gQvznm8sy5MtydPW4pjx4ybWa8gY6tQQq1UpmHlzZS2vBb68OEr1XDVXPjr1GHEAimPbIAf1kPFUhSASko72o2RNNWY8WO8gbyZWcN91b5Jeo7r1nxqtTpZqdElkaqRldgDlZaSnUG4ILm1uAO8dzD0FpotNQFVQFVRuCqLAD2EwwGFFKmlIblULfibC1z1MlS8xmPpfZERLIIiICIiAiIgIiICIiAiIgeSsduqoNGnQJ1rV6agcwjd6392mfnLI7gAk6AC5PSfPdoY36TiBiDcUqSstHf4y9g9UjqAAvQk/alsZuqcl1jUutiFUXPQAAEkngABvPSQ8RjHRkNShUUObLcDU6aebQ66A6mWbs/skr9fVH1h8oP+7Q8PxHj8uGvWx2GSojI6hlI1B/70PWaZct3058Ppp49+1N+mWGqVFPMo4HztaYDaF9Ajt6I5/ZZ2dktfC0XfxsyIbnecwvc9bTDZ2Jq1E7xcOSpZgpV08SBiA1mIte0jHm2jL6XX7co067+VAg4Fwf0QEH5kSVs/Y+V+8di72tnb7IO8Ig0QempsLk2nUY1f+HqE9Go/wBXmLVq40GEqH89AD3OeTcpfdTjxXH1G5UEwY3kZ6GOfy06CbvPUdj8kT+s209gVH/9RW0+CiGpg/icksfbLK3OLziyvtDxO0UQmmLu/BF5/ebcu7iZN7M7PBAxjNmeqgK7wtOm1mCIDrfdmJ1JHC1hyKOGTD5qNRcgDsUqHyOhJK3c/bsQDc3Nr6zudmcSvdmmCCEdlUjUFT4hY9M2X8sy8rbqt8eOYzcd6JjmE9kpexEQEREBERAREQEREBERAREQI2Mwq1Uam18rAg2NjY9ZCwmwqVNg/idgbgsQbHmAABfra86sQiyV7MHW4I5iZxCVTTZmJVBh0C5FGRalwCqbvJxYDduH7mwYRQiLTVMqqoVVG4KosAJLiVk0m3bAOJkGE9tFpZBeezy09gYkXmPdDlNkQNfdCZZRMogIiICIiAiIgIiICIiB/9k=;fillColor=#F2CC8F;strokeColor=#E07A5F;fontColor=#393C56;" parent="1" vertex="1"><mxGeometry x="479.87" y="410" width="33.26" height="38" as="geometry"/></mxCell><mxCell id="xYVlEia6IdGVw25vf1dU-43" value="" style="shape=image;verticalLabelPosition=bottom;verticalAlign=top;aspect=fixed;imageAspect=0;image=data:image/jpeg,/9j/4AAQSkZJRgABAQAAAQABAAD/2wCEAAoHCBYVFRgSFRUYGRgZGBwZHBkcHBgZHBoVGBwaGRoaGBgcIC4mHh8rHxgaJjgmLC8xNTU1HCQ7QDwzPy42NTEBDAwMEA8QHhISHjQhJSsxNDY0NDQ0NDQ3NDQ0NDQ9NDQ0NDQ/NDQ0NDQ0NDE0NDQ0NDQ0NDQ0NDQ0NDQ0NDQ0NP/AABEIAPAA0gMBIgACEQEDEQH/xAAcAAEAAgMBAQEAAAAAAAAAAAAABAYCAwUBBwj/xABEEAACAQIDBQYCCAMFBwUAAAABAgADEQQSIQUxQVFhBhMiMnGBUpEUI0JicoKhsQeSwVOiwtHSM0NUY7Pw8TRzg6Oy/8QAGQEBAAMBAQAAAAAAAAAAAAAAAAECAwQF/8QAJREBAQACAgIBBAIDAAAAAAAAAAECEQMhEjETBEFRYTJxFCJS/9oADAMBAAIRAxEAPwD7NERAREQEREBExJtqZwdo9rMNSuobvGH2U8WvIt5QfUwO/F58/wAX23rNcU6SIODMWc2/CMov7mcTGbYxFTz13t8KnIP7lj8yZPjVLnI+q1MSi73UepA/eZU6isLqwYcwQR8xPiGIw1M+J0Vj8TDN8yZ0uxGPOHxC2JFOq4Qpc5VDeFGCk2Bz29niywmcr7FERIXIiICIiAiIgIiICIiAiIgIiICIiAiJDx+NSihqVGsB7kngAN5J5CBLJlY2x2tp07pS+scaEg+FT1biegv1tKxtnb9XEErqlPggOrD77Df+Eaes5QAEtMfyyy5NekjaO0K2IP1zll+AeFB+UHX3vImQCbLzBwALk2HOX1Iytt9hmms6rqxty5k8gN5PSamxDNpTXT428vsN7ft1mS0QPEbs5Fsx5cgNwHQfrBr8tLIX1cWUbk58i/8Al+/DXjmKozjzIM6/iTxL+oElNNTi4K8DoZVaV9twlUMiuNzKCPQi83yv9hsV3mBw5JuVpim34qfgb9VMsEo6CIiAiIgIiICIiAiIgIiICIiAiIgaqrhVLE2ABJJ4Aakz5jtvajYioahJyC4ReS87fEd5+XCfSsbhhUpvTJIDqVJG8BhbSfHMfhq9Go9Cq4DKbqQls6X0dSWOnTgdPWcdbUz3rpI9JorYlE8zi/LefZRrIwpg+Znb1Nh8lsD7zOlTA0VVUdAB+0vthpsNV38i5B8T7/ZBr87TxMGL5nJcjUZtw9F3e++SESZkSdI21uZg0yaYOdII0O08XSDNdMamVXfQP4Z4m9GtSvqlZmA+7UAe/wDMWl2nyz+HuKyY16Z8tWkLfjQn/CZ9TlG8u49iIhJERAREQEREBERAREQEREBERAThdp9gJi6WXRai606lrlG/qp3EcRO7PDA+I1aTozU6iZHQ5XW99eanipGoP/iZJPofbDs936d9TH11MG24Z03mmx/UHgehM+dob6j/ACPoQdx6S+N2wzx0lIZkZqpNNt5dm1uJqcTewmp1kERmEwA3za4mFpC7DCYs0cThqw0CVlDHd4H8D39jPugnwpcC1c9wo1YWJ4KvFz0F/c2EvmG7aU8Opw1fvHrUmyXVCe8QAFKhY2UFlIvrvDTO2b02x9L1EpVH+IVM+bDYhdf+U2nOy1CZZ9lbUpYhO8pOGXceBVhvVlOqkcjCyfERAREQEREBERAREQEREBERAREQMSJ8x7ZbM7jEd4otTrknTctYasPzAZvUNzn0+cvtBspcTQeiTYkXVvhddVb2IEekWbmnykGxm8GRkzC6OtnRijryddD7cR0Im4PNZXNZpk5mJOkwdwN5kzAbPq1/9mlx8bXVB1zcfQXkZZSeyY2+kBpvwGzamIPgFk41GBy/l+M+mnMiWfA9mKaEGqe9fkRZB6Jx/MT7TvsgAAFunT0nPnzfbF0YcX5cvZ+zEoplRTc2ux1dzzY/sNwlQ7aBBiUCHxmmc45AN4CTz1eWPtB2iTD3poM9Yjwp8I+Jz9lZRKVBizO5zO5LO3Nj+wG4DkJXixyuXktnlJNMGoWUlc2YAkHMb39zYy8fw2rfX4hM3+7pOy8MxNRc3rZQPYSpXCgsxsBqTyE+j9hNjijSasbd5XIdrfZQCyIeoBJPUkcJ0Vnh3drZE8nsq0IiICIiAiIgIiICIiAiIgIiICImuo4UFibAAkk8AN5gUDtxsQrWTEpYLUIp1L3sG3U305nwn1WRsJ2XufHVJ6KuTTlckn9pz+0+3fpjWUkUB5Rqucjc7fuB7+nT2V2mp5FWqWV1ADHKSGIA8QIBGvKUz8pOkTwt/bt4HYlCmQy00JH2m8bezNe06lSottLkysV+1dJQcodyOSsL+hYAfrONiu1eIcZURKQ5nxvb08oPzmMwzyWtxn3XHHbRp0U7yq6ou7xEC55AcT0EqO1+1Lv4MPdU+Nh4jf4VPl9Tr0ErrUszmo7O7/G7Fj+Xgo6C0LVv5Bm+9uQW+8d/tebYcMn8lMuX/lkUCgsTvOZnY3JJ4sTNq1FRc7GwPPT00kNGZ2y00as44hGZFP3VUE+9ieoll2bskUmFSrh8RVqDUMaThE4HInA9TczaWRn4291hsnYT1WFaqMqDyUyNSeDv15Lw3791kobOenrRqGmb30AKE/eTcfUWMmYLFI+isLjepuHHqpsR8p0VQS0kqlyuP6acHtplsuJUJfQVFuUJ+9fye+nWd5SDrOM9G9xwPCc6pj3woCohqI7BEQsF7t2NguZvsHh8J03EWrljrtrhyeXVW2JxMM2NYAuMPT+79ZUPuQVH7yWMUyf7VQBp41N1udPEDquvHUdZntrp0IiJKCIiAiIgIiICIiAiIgJXu2zMMFVychm/9ssBU9smb2lhmFRQQQRcHQjpA+DM9mzEEgqApXWw4i3XnJSDTlLftrsrQOIp0qOaldXqPlN1CCyqqo11S7NfQbkYenp7Ep/xFb/6f9EvjusMtY3W1Jeq17KjMfYD5sRMKtRh5mRL7h52PoNBf5y+r2Ko/aao3q5X9EyzpYTs/Rp+RFU8SBqfVt5k+NV8sXznDbLqVbMEbL8dXRfy0xvPqB6yzdnuzS1mOds6UzlY7gXFiURenEm++wsbkWPH0lp03qHciMx9FBM4+3kqYbY7d1cOaal2XQhqjA1X6HxMb8JXLprx6yW3BYnDKe4ptTUj7ClQfkN86Qn5RxFdVFJ6LVe+8TOTZQr5vB3RU3tl334z9QbGLmhSNTzmmpf8RUXlJWtj3H7Np1gM66jyuNHU81Yag/vxnDw+JdKrYep50AZX4VKZ0D9GB0I567iJaZwu09AZUr7mp1FF+aVGFNlPS7K35BLY3VZ54yxJU3F5F2jhVqIyNuYWuN4PAg8wdfabcM3hnA7R9p1wzd0q5nyhtTZQDcC9tSdDpNrrXbmm99LRsTFGpRUt51JRuroSpI6G2YdDJzoCCCAQRYg7iDvBE+X7A7YutazqpSrVQMAGBUvkphlJJvwJFtdZ9TmFmnXjdx817N7exSbWrbLqMalJQxQsBmRAA6WbewysFN7m/GfS5xNnYemcViaoRc4KU2a3i0po+XNys66ek7ciLUiJGxGKRCqsbFjZRYm50HD1ElCTERAREQEREBERAREQK61O+LqueFOkg9jUY/8A7Hyk60juLYioOaU2/wCov+GSZth6cnL/ACpERLs3P25hy+HrU13tTdR6lSBOjs8JVw6ZlDI9NbqdQVZRoee+eTmbHxH0eocJU0VmLUG4ZSbmnfmCTYcvSZck+7o4cvcY4bsHgKdQVVw65gQygliqsNxCk2FpZ7RPZm3eSv8AbGp9QqDzVK1JVHOzq7f3UY+07ruACSbAaknlKZicZ9LxCsmtGlfI1tHqNoXXmoGgPHM0e7pGV1Np+IxfdU89rklUVfid2CIvS5I14SPtDsZTr+N6r96bZnFsthuUIRYKOHHmTJO1MKz0SqWDqUdL7s6OrqD0JUA+sxobZxDv3K4Xu6mXMS9RCgW9iwyXZteFh6iTyeW5pnxSWXftHwfYTDJdmzu32WZrZDwZAtgGHBt45zdsLtCXorTPjxKu9IqOJpO1M1X+BDlzXPoLmwnKpbWxteuuFWrh6ZdKzZhTdmRaNXuWy/WWZjvF7W5G0uGydmJhqa0qYNhvJ1ZmJuzOeLEkknrKTba6nTLZuE7tbE3djmdrWzOQAT6WAA5AAcJOnM21tHuKRqAZmuFVRclmPQamwuxtwUzDD42oyB1FOqhFwUbKSPuhrqfdhLIdWQtpVSqqdAM4DMRfItj4reoAvwzX4RTxyuGCauoJ7tro1+FwRcAnTNqPWNm1KjJequVrnhl8PC65mseG/hfS9oGeBqllJJvYkBrZcyjc1v0vuNrjQyXEQEREBERAREQERPDA4u0bLiKbXHjRkI4kr4109M8kSlYgNUr1augrU8QchcmyqjWFO41VXTl8d7HdO2naOkule9E7vH5D+GoPCfQkHpNsep25OSy5WR2omqhiUcZkdWB4qQRb2m2WUJrxFBXUo6hlPA/05HrNkRSIdJa9IWSoKijctW+YDl3g1P5gT1mDbWxO76PTB61G/wBE6E8lfCNJy5RwsRha+INsQwyf2SAqp/Gbkv6aDmJ08NhFQAAbt3SSokzGRW53L2xKyDjsK7MtSk4R1BUMVzqVaxKutwSLqDoQdJPMxaLN9UmVl3FV2JsN6GMpVqlbOzGogAXIqowqVXspJuWexJvwEv8AK7XrIlakzMFVc7EsQAAEy3JO7zTs/S0NM1VYMoUtmUgggC5sR6THKSXUdOGVym6gg95iGP2aICjl3rjMx9kKi/32ntfZSkl0ZqTnUslhmPNlIKsepBPWQMDtAqvdomep56hJyotR/GVL2NyM24A2GW9riZ4nH1UUu9SiijUkqzAfmLr+0r5Se2nx5XuNe06GIHdsaiErVphStNlezOoYZu8IClb5tN19OVmld2XiziGpMw0VTVJtlBzZkpHKSSMy5nsTcaSxSUdzqvYiICIiAiIgIiICeGeyJtHHJQptVqNlRBcnpApHaagPpqmk5pu1ItVsAytZlSlnTmfGLggkIOQmzCM5BWoFvuuvlcc8p1Hob7t5mvAU2qM+KdSHrENY70prpTQ+gJY9XadNEnVx42Y9vN585crpx32RTzZ0U034tSY0yfULo3uDJdDF4mnazrWUC1qgCP650GU+mT3EmtTE1MglrhGc5cokYfb6EhKoak50Ae2Un7ri6t6Xv0nXVgdRK3WpKRlZQykaggEH1Eg4d6mHYvRLOgGtAm+n/KY6g/dJsekpcbGuOcy99LpEibNx6V0FRGup9iGGhVgdQQdCDukuRF6SNtDE93Tepa+RGa34QT/SSZE2rSz0aifEjr81Iik9qTjts4lPGa9jxUImQHiAPNb1M5zdrsTVuhqooCFy1NQHsCBYliQu/lIOPxa1UUG2qjwEEsdLkZBqbcpDpdm8RU8YK0lIK5St2Kkg5io8u7d79Jlle+m2ON12zXab1XYVHFQI9lLnMyoyKRZbBc1z595l+7MvfZ+KI3Z64X+UA7vvXPvKPs/YRAVs4s7qL5dLM6optm5W+Vp9Wp7HWhg6mHQkkpUJY2BZ3DEsQNBqd3ASuXrtph3dz+nI2Zs4MatTvKi569W6q9l8Dsg0tp4UG60Y3B0lOTIWsMzsSzuEJyhULEkO7eEWt9o7xN+BZ0VxkbV3qK58KFKpNTMXOigFyCN/hOh0vK2JhO8IqEkorZgSMve1f7TKdQijRB0vwBmMxtvbqucmMkdTZGENNLvbO5zPbcCQAFHRVAHtedKImrEiIgIiICIiAiIgeSldrG7/ABFPCHyU1Fd1+NsxWmrdLqzewl1lIcE4zFOeD00H4VpI4/V2luObykrLnyuOFsS0FplmnnSY9Z3PJZsZgRCmYuTvgR2a4vI9DEKSQCLg2I62vb5EGc/ZeNvnoWZ6iO4KqCzZCxZCeQysupnmCwpGJqO6MhCoQrZdM4KlgFJ3hANevOY+c3JHR8dktvpPw+LGGrh7HJW8LhQSRWUEo4UC5zKCD+FeZljXaKEX8f8AI4/dZU9uI3dsyedBnX8aeNf1FveXrZdYPTV13MoYehF5z83JcMup7dPBjM8e/cQjtBOZ+TX+Vp59PU7lqN6Uqh/wztxaZf5F/Db4cVdfB5iSuHYE72IRL+tzm/SaMZRp0EapiKioqqWKoSWKqCTrbMdBuUA9ZaZwe2JUYSqp0NVRRuN/1pFPQ9AxPtKfLlldLTCY9qZhMGXFCklqbPUFQDKCECsaxUqpF1FguhG8S4bW2u9Kky1EUu4yUypOV6r2VVIOqG7A210B10nJ2Fsk1neqtR6YpgUkZMvm0aobMCrDRF3aFWnm0qbpWao9Z664WmaioVpopxNS6UUBUC7WzbzpnQzbPe9T0cU/13fd7dDZGF+kEo5zUcMVoqn2alWkozu/xBWsoU6XViQdLWyc7YuA7iglK92UXdt2aoxLVHNuLMWPvOjCxERAREQEREBERAREQPJUsQmXE4j7zo/saaLf5oflLaZUttkrjVHCpQuPxUn8X6VVl+O6yjD6ib46yvPGHCAZ7O15bEC2kMZ6DxngECLSJo1TXRM2ZcjquUMwGqsLkAldRbkx5AHWrtUqPXZSmcKiqSL5EzWJtpclm/STGE1sLCZfHj5eTb5srh4fZHxKgqQeKkfMTtdiyTgsMW3mihP8onDxz5Ueodyox+Sky27Jwwp0adMfYRV/lUCcn1f2df0fqpsRNdWsqjMzBRzJAH6zkdjZKT2wx2asmHQ3KeMjeO8ZSEzdFTO7cQMvMSwvtXMD3KGobXzeWn6modGH4c05PYfZ4aiuNqeOtXDOzndlc3ARbeFSoXrYKCTYTTine0ZTc024DbCUcOi08PiXUKMpWk16hOubXdmJzXNt8hKhaphaVRcr4iq+Lqo2/wCqVWRPVGNEf/HLGdnshvQYAf2beT8hGqe11+7Im0HVgpqK9J0bOtTLmVGAIJzLdcpBKkNa4J3G03Rt34nK2BtM16WdlykOyG2qsVNs6HijCxHrbhOrAREQEREBERAREQEREDyV3tYoUUaxsMlUJfmtUGnl/nKH8ssUqv8AEUH6ExW11qUWF+lVJM6u1c5vGxpzTMNNV+E8Z7Tu28fTa5gGY757aSh7aeuBa0wd7SDtHaApJnYFiTlRF1Z3O5VHP9tSdBItkTMbb09rp31anhF4kVKlvs0kYHX8bAL6ZuUvKiUTs539HvHagHq1SGdy4CqAPDTXQnKoJ4am54zrPjMW39lTHMZqh9gQvznm8sy5MtydPW4pjx4ybWa8gY6tQQq1UpmHlzZS2vBb68OEr1XDVXPjr1GHEAimPbIAf1kPFUhSASko72o2RNNWY8WO8gbyZWcN91b5Jeo7r1nxqtTpZqdElkaqRldgDlZaSnUG4ILm1uAO8dzD0FpotNQFVQFVRuCqLAD2EwwGFFKmlIblULfibC1z1MlS8xmPpfZERLIIiICIiAiIgIiICIiAiIgeSsduqoNGnQJ1rV6agcwjd6392mfnLI7gAk6AC5PSfPdoY36TiBiDcUqSstHf4y9g9UjqAAvQk/alsZuqcl1jUutiFUXPQAAEkngABvPSQ8RjHRkNShUUObLcDU6aebQ66A6mWbs/skr9fVH1h8oP+7Q8PxHj8uGvWx2GSojI6hlI1B/70PWaZct3058Ppp49+1N+mWGqVFPMo4HztaYDaF9Ajt6I5/ZZ2dktfC0XfxsyIbnecwvc9bTDZ2Jq1E7xcOSpZgpV08SBiA1mIte0jHm2jL6XX7co067+VAg4Fwf0QEH5kSVs/Y+V+8di72tnb7IO8Ig0QempsLk2nUY1f+HqE9Go/wBXmLVq40GEqH89AD3OeTcpfdTjxXH1G5UEwY3kZ6GOfy06CbvPUdj8kT+s209gVH/9RW0+CiGpg/icksfbLK3OLziyvtDxO0UQmmLu/BF5/ebcu7iZN7M7PBAxjNmeqgK7wtOm1mCIDrfdmJ1JHC1hyKOGTD5qNRcgDsUqHyOhJK3c/bsQDc3Nr6zudmcSvdmmCCEdlUjUFT4hY9M2X8sy8rbqt8eOYzcd6JjmE9kpexEQEREBERAREQEREBERAREQI2Mwq1Uam18rAg2NjY9ZCwmwqVNg/idgbgsQbHmAABfra86sQiyV7MHW4I5iZxCVTTZmJVBh0C5FGRalwCqbvJxYDduH7mwYRQiLTVMqqoVVG4KosAJLiVk0m3bAOJkGE9tFpZBeezy09gYkXmPdDlNkQNfdCZZRMogIiICIiAiIgIiICIiB/9k=;fillColor=#F2CC8F;strokeColor=#E07A5F;fontColor=#393C56;" parent="1" vertex="1"><mxGeometry x="657.87" y="410" width="33.26" height="38" as="geometry"/></mxCell><mxCell id="xYVlEia6IdGVw25vf1dU-52" style="edgeStyle=orthogonalEdgeStyle;rounded=0;orthogonalLoop=1;jettySize=auto;html=1;strokeColor=#E07A5F;fontColor=#393C56;labelBackgroundColor=#F4F1DE;" parent="1" source="xYVlEia6IdGVw25vf1dU-50" target="xYVlEia6IdGVw25vf1dU-3" edge="1"><mxGeometry relative="1" as="geometry"/></mxCell><mxCell id="xYVlEia6IdGVw25vf1dU-53" style="edgeStyle=orthogonalEdgeStyle;rounded=0;orthogonalLoop=1;jettySize=auto;html=1;strokeColor=#E07A5F;fontColor=#393C56;labelBackgroundColor=#F4F1DE;" parent="1" source="xYVlEia6IdGVw25vf1dU-50" target="xYVlEia6IdGVw25vf1dU-4" edge="1"><mxGeometry relative="1" as="geometry"/></mxCell><mxCell id="xYVlEia6IdGVw25vf1dU-54" style="edgeStyle=orthogonalEdgeStyle;rounded=0;orthogonalLoop=1;jettySize=auto;html=1;strokeColor=#E07A5F;fontColor=#393C56;labelBackgroundColor=#F4F1DE;" parent="1" source="xYVlEia6IdGVw25vf1dU-50" target="xYVlEia6IdGVw25vf1dU-5" edge="1"><mxGeometry relative="1" as="geometry"/></mxCell><mxCell id="xYVlEia6IdGVw25vf1dU-50" value="" style="shape=image;verticalLabelPosition=bottom;verticalAlign=top;aspect=fixed;imageAspect=0;image=data:image/png,iVBORw0KGgoAAAANSUhEUgAAANEAAADyCAMAAADk3NBFAAAAnFBMVEUAljn///9CqWIAkCYAlTYAjh/B4csAkzAAlDMAkSoAjh4AjRoAjyQAkzH5/fvA4Mmbzanq9e7x+fTp6emOx57U6tu228GLi4uCwZTa7eAWm0Sp1Laj0bDi8ecsoVFVr2+kpKS4uLh+wJFsuIHL5dNjtHrS0tKTk5Ovr6/y8vI5pVpMq2eAwJJ1vIkAhwDh4eFmtX3IyMi1tbWFhYUnaLZOAAAKcklEQVR4nOWda3eqOBiFEwkNQaTear1rtWoth9PTmf//34a0pypKriRImP3B1bPWDPAI2e68CQmATRO49wUYVzVEk/k4Hc8nlZyrAqJ4jCOCMSYRHsb2T2efaE4IAt9ChMytn8820cPSA5fylg+Wz2iXaLHyEcgL+auF1XPaJIrHfgBuFfhjm83JItEMkQIeKoJm9k5rjeh16V0/cBePXrR8tXViS0S9XZvN88XU3vXsnNoO0dDDXB4q7A2tnNsG0QiwGtBVc5qOLJzdPNHkPeI/cBePXvRuPhmZJuqnYZFjsxSEad/wFRgm6mJxA8oL467ZSzBK9DCVa0B5kanRYGSQaJGEsg0oLxQmBoORMaJ4E6k0oLyCaGMsGJkimmGdB+4sgk0FIzNEr0tpx2bJWDAyQdTbaTagK6bQSDAyQCQTeeRkJBiVJhoF5RpQXiQoHYxKEj21SjegvFDUerojUX9b2Ektp8DflgpGZYiGkakGlBeOygQjfaJHrcgjJzJ9rJxokhhuQHmhKNHtZ+gRxanfschD1fFTvWCkRTQvGXnkRLBWAVaDiFvlMSnk6QQjZaLebZnUIpO/Ug5GikTxWKnTXV6dULUAq0Y0YpZJ7YkgtWCkQvQkX+UxKRS9qwQjeaL+rl3tA3dW0N7JByNpoiGxE3nkhIl0P0OSyGbkkZN0MJIimrQqdGyWkN+SCkYSRP30bg0or6AtU4AVE3UriTxyIhIFWBHR67SiyCMn5E1FwYhPtFgZqfKYFAoFI9M8onhcokxqT52IG4w4ROyR4XuLOzLNJDJQJrUnXgGWQdTb1eAXiCfkswqwxUTmyqT2xCrAFhHdo8+go+J+xi3RUx0ij5wKg9E1UX9bS8dmKYhuCrBXRF0HGlBe2OtyiPRGhu+tq5HpC6JF4kwDyis/Ze9EFG8sjDNUpcA/j0z/EFVTJrWncwH2m2hS58gjpywYTc5Ec4cfuLMCf/5DNGzf+2IMqT38Jho1BShDeqREfex6EzoL4X5GtHHb5PIivyCIPfF/55BIDB6bRRQ9gKFr0ZQvPAS7JvwUndXZgqSU06EO7gQmvRIF2QHL/P8JaGlfDyIRWa7SbbIknpluVXZEkKTbd6w/mQW1tImQNx2eusS90RaT0reKTOd/6ztPqad5o/SJMLiqWvRnJbuLKLqs7fRWeh6sTeStCgq13ajERBRErgZbh6HWYTSJvPSWh94nzS+WXgm5KSh2I53j6BHhP4VA9Iv1Na6Cyi+o+m41/EGPCAH22MBML8jjopsea/wu6BF5vCkTM627RAqHI+fqXqNHhDlAdGak8gEB3hYeKlY3By0ixulP2ql/sx5jZH+l/KukRURE7wO8K5u4zxg5GSp/OVpErC/0pD5QPabPONKoIiLh60IT1eefRfSg/PtmiQiOFJHqT6RqeA4QwT9KLcAFIrhUMV4niJQMzwkiOFG4GjeI4KN8aHWESMHwXCGCW1nDc4ZIOuG5QyRreO4QwYVcU3KICD5KdWldIpKr6DhFJGV4bhHJGJ5jRBKG5xgRXAiL/K4RwQdRl9Y5ItgVeLh7RCLDqysRb6Z8wq3K15Uo4RDFU9556kr0m/dm2oL3jkxdicKQVz9+4LhDXYl84PNe85yzkepLROdOsZUyDa++RCBYcohgi2V4NSYCeMUhiqeMsmSdiYA35iCxDK/WRIBreK/FNbx6E4GI9zZkseHVnAhh3ioRhYZXcyIQTDlEhQmv7kR8w4MFhld7IuBtOEQFXdr6EwGfa3g37uAAEWgrGZ4LRHzD21xdqQtEmeEpdGmdIAKY36XNGZ4bRIAUT5T8Vi/3/okjRMDnrQSWS3iuEBVO1TzpcmqhM0SI8Ja7uDA8Z4gEhrc6GZ47RHzDOyc8h4gkDc8lIuDzVvh5jRwk4ie8WeggEfJ4hjf23CMCSGx4jhEB3OIQfU0tdI0IEN6cd/qGsXNEgLt08pPvIBHweSOdszB0jwhFPMMb/naPCCDAG4dhZaU6E/ENj2XvtSbiG56TRPyE5yQRCJWXiq87EfJUV4qvO5HA8FwkAsF704gAYb4b7CoRiJT2mnGBCIQqK6o7QQQiBcNzgwghecNzg0jF8NSX/rkLESC7phHJG54zRNKG5w4R8OR2kHCISNLwHCISTC10kUjO8JwiAjK7CbpFJGN4jhGBttDwqiJilQtUicSGVxERYdR0JN8UvVBHZHjdatY56TBcaqS+6BbhTi2EcKe8qo3mmk6mTi+YSw2h+nekR1S8YFBPa1007kybWVWrVKHCmbWp3kqHnOnhcaeqlcQAKZiGejtVU1I+85d2Vdlqb1kH5+aLFb8hypS3KjZx6dUdLqW9amL7ysGfyqxr2bnejuDrkUu0lpXUX9kyym3POCy5hLs3nV3dpxHSa5YlVh/FZPs3xCyGoPTy04iQ1ew0sPk01N4ZqwQR3bvCW27TBEflV1Kl6pDIWybbdLUkJY6YEZVaxRd1sNFljVHQwRqWfXmEpGkrLQd/GrgadsNWLPceGriqfPNW/m/g7gw/MyuboPboe5eTjW5srpt+djmhi3Y04UfpYieaBu4WBJu3oxP82nWrxJrwd1anYNct6PTOaEnRzmhUTdu97sv1GrbDIGzgLpCQ7tTpjJOjqHU7vPF/2E2Vqmk73sIG7koMm7dzNNUsqGtzIoHO7t6wtjuwB9o7sGdarMK6PXooXPFeKhER0WCkW6+1IuRNee/9yBBlwahG/QyCxW8qiIlgP23XozkF7VRifpQEUdbFrUMwyiKP1JxdKSIIH+/ezyBTyfdIJInuHYwwkZ75Lk2UBaO7NaegzYo8J33s9wNVoqyf8X6X5oSid8GUqOM/z28vL+vnT1WiLBjdoZ9BgGgHqY9vFHh8ORxVibJgFFb76AUhN/JQDZ4HP3/uD8pEdHvGCvsZyF+JGhCEh48M6nA4rD8gfPlHnYj2MyoKRshj9xnO2q+/b9Px8zl75g5HDSK6T14VzYkQ3iyok972Pw/eM71Jey0iGKfWC7AdPxU1oG9RNxjQ27P/+njRI8qCUWLVyVGU8PsMV0SH9fqwzv4oQWQ3GElHnkzrAb1HH4PB+i371+enPhHdHMNOMMLc5Ryu9fLTjo70qXv7KEME+1sLQ2mBf1Mm5WqQ/QYN/qXOkH0cDzrufSnjwUgceW709pmlBdqGso/1viwRhCOjXVyCVV7F/KvD5wnuTSMz3MpcP4NVJhVpTeMCzUAv0AhR1s8wUjFCobDPwNJ+naWgw9tXvjNBZKQAyyuTyuh4/PuHGSI6NbtccyJY1GeQlSkiGG9KFGCDaCMXeSRkjIiOTGs2JxRKRx4JGSTSHZkmwjKpkowS0ddrVJ0cs17+0ZVhIthPlbrtQShTJlWSaaKsnyEfjLLIo7qWi1jmibJgJDmjnQCNyCOUDSK5YKQbeUSyQ0QLsPxHD4nLpJqyRCSoGJWNPDxZI+IVYAkyFXkKZJEoC0aFTh6Ev4xFngLZJCqcsod8wchwWdklyoLRMj/n31sajTwFsk2UL8BKlklLyT4RjMckIhjj7FM4zmBAFRBleu2O03HXmmHnVA1RlWoe0X8XGsRVC/dlBAAAAABJRU5ErkJggg==;fillColor=#F2CC8F;strokeColor=#E07A5F;fontColor=#393C56;" parent="1" vertex="1"><mxGeometry x="405.97" y="254" width="44.05" height="51" as="geometry"/></mxCell><mxCell id="xYVlEia6IdGVw25vf1dU-60" value="" style="endArrow=none;dashed=1;html=1;dashPattern=1 3;strokeWidth=2;strokeColor=#E07A5F;fontColor=#393C56;labelBackgroundColor=#F4F1DE;" parent="1" edge="1"><mxGeometry width="50" height="50" relative="1" as="geometry"><mxPoint x="11" y="221" as="sourcePoint"/><mxPoint x="840" y="221" as="targetPoint"/></mxGeometry></mxCell><mxCell id="xYVlEia6IdGVw25vf1dU-61" value="k8s ingress" style="text;html=1;strokeColor=none;fillColor=none;align=center;verticalAlign=middle;whiteSpace=wrap;rounded=0;fontColor=#393C56;" parent="1" vertex="1"><mxGeometry x="736" y="195" width="95" height="20" as="geometry"/></mxCell><mxCell id="xYVlEia6IdGVw25vf1dU-64" style="edgeStyle=orthogonalEdgeStyle;rounded=0;orthogonalLoop=1;jettySize=auto;html=1;entryX=0;entryY=0.5;entryDx=0;entryDy=0;strokeColor=#E07A5F;fontColor=#393C56;labelBackgroundColor=#F4F1DE;" parent="1" source="xYVlEia6IdGVw25vf1dU-62" target="xYVlEia6IdGVw25vf1dU-3" edge="1"><mxGeometry relative="1" as="geometry"><Array as="points"><mxPoint x="125" y="401"/></Array></mxGeometry></mxCell><mxCell id="xYVlEia6IdGVw25vf1dU-65" style="edgeStyle=orthogonalEdgeStyle;rounded=0;orthogonalLoop=1;jettySize=auto;html=1;entryX=0.25;entryY=1;entryDx=0;entryDy=0;strokeColor=#E07A5F;fontColor=#393C56;labelBackgroundColor=#F4F1DE;" parent="1" source="xYVlEia6IdGVw25vf1dU-62" target="xYVlEia6IdGVw25vf1dU-4" edge="1"><mxGeometry relative="1" as="geometry"/></mxCell><mxCell id="xYVlEia6IdGVw25vf1dU-66" style="edgeStyle=orthogonalEdgeStyle;rounded=0;orthogonalLoop=1;jettySize=auto;html=1;entryX=0.25;entryY=1;entryDx=0;entryDy=0;strokeColor=#E07A5F;fontColor=#393C56;labelBackgroundColor=#F4F1DE;" parent="1" source="xYVlEia6IdGVw25vf1dU-62" target="xYVlEia6IdGVw25vf1dU-5" edge="1"><mxGeometry relative="1" as="geometry"/></mxCell><mxCell id="xYVlEia6IdGVw25vf1dU-62" value="Hippokratos" style="rounded=0;whiteSpace=wrap;html=1;fillColor=#F2CC8F;strokeColor=#E07A5F;fontColor=#393C56;" parent="1" vertex="1"><mxGeometry x="79" y="498" width="92" height="34" as="geometry"/></mxCell><mxCell id="xYVlEia6IdGVw25vf1dU-67" value="Test" style="rounded=0;whiteSpace=wrap;html=1;fillColor=#F2CC8F;strokeColor=#E07A5F;fontColor=#393C56;" parent="1" vertex="1"><mxGeometry x="744" y="1006" width="61" height="28" as="geometry"/></mxCell><mxCell id="xYVlEia6IdGVw25vf1dU-68" value="" style="shape=image;verticalLabelPosition=bottom;verticalAlign=top;aspect=fixed;imageAspect=0;image=data:image/jpeg,/9j/4AAQSkZJRgABAQAAAQABAAD/2wCEAAoHCBMSFBQVFRUXFxcZFxkaGhoZGhodGhoaGhgYGhkZGRccICwjHR4pHhoaJDYkKS0vMzMzGSI4PjgzPS0yMy8BCwsLDw4PHRISHTIqIykvMjQ0NjQyMjQvNTYyMjIyMjQ0MjUzMjIyMjIzNDIyMjIyNDIyMjIyOjIyOjIyMjIyMv/AABEIAOsA1wMBIgACEQEDEQH/xAAbAAEAAgMBAQAAAAAAAAAAAAAABQYDBAcBAv/EAEEQAAICAQEGAwQGBwgBBQAAAAECAAMEEQUSITFBUQYTYSIycYEUQlKRobEHIzNDYnLwFSRTgpLB0eHxFzRjorL/xAAaAQEAAwEBAQAAAAAAAAAAAAAAAgMEAQUG/8QAKxEAAgEEAQMEAQMFAAAAAAAAAAECAxEhMRIEQVETMnGBIgWR8EJhsdHh/9oADAMBAAIRAxEAPwDs0REAREQBERAEREAREQBERAEREAREQBERAEREAREQBERAEREAREQBERAEREAREQBPJX9u+McHCO7dcu//AIae3Z6ewvEfPSV9/wBIF9mv0fZmS69GsArU+o3pxtLZ1JvR0CU7M8dVl2rxKLcplJVmTRKgw5jzW4H/AC6yvbd8fZYxrkfZ+RVY1bKrqN+tSRpqWHLnIDP8Y4uJh1JhsljgBFUgjc0HtO6HQ6k/eTIuT/pySjFdy8L4zyk9q7Z7BOppuWxgO+4VUn5amWjY216MyoW0OHU8D0KsOasp4qw7GcS8IePLrb1pyQG8xgqOqhSrHkGA5qeXcesuGRadnZK5tfCtyteWg4BlJ0S4jlvITxPZj6yKk1K0jrgmro6fE1cfaFNn7O2t/wCV1b8jNqWlYiIgCIiAIiIAiIgCIiAIiIAiIgCIiAIiIBjssCgsxAAGpJ4AAcyTOabU8T5O0nerBfyMVCVsyj7z6e8KR2/i+fCffi/aT7RyTs+liuPXocuxT75+rQp/P/rjg2/SEx68aoeX5tleOoXhuq7aOR6hAx+UrlOz4rZZGF1yejT8K+GnyNXxP7vj7xH0l1D5OQQfadC3BEJ10Y/d2tv/AKf45HtZGYzfbORYD9ykAfdLViYyVVpWgCoiqiqOQVRoAPkJnkkkiLkzlHiFv7Jb2NoJbw1OPkMPN3ePuWqNR6b446c5jxK9m7VTzBUjH6wIC2IT0bd/PkZzDxzjXV5+ULwd82s2p6qx1Qg9Ru6fdLN4ExHy3ymw0NNlKpZUGcuGOmj02MQN5HIJHAFSecjOmnlYZKM7Yeiwt+j/AAwyvW1tTKQVZH1II5EbwMbQ2PtIVWVpk15KOrKUuTcbQjT2WXgT8dJYdkbQXJpS1QV3xxU81YcGU/A6ibkzc5dy/guxzPCwcEblOVjvi3gKN8kqrMBpvI6nTUnjoe/My1Y/9pYehxso3oOPlZJ3tR2W3n6cfvk3m4Vd6FLUV0PRhr93Y+olXt2dk7P1bHLZGMOLUsdbK16+W31gOx7aeszyVVPlSl9PK+vBbH02uM19rZdfDfjmrJcUXo2Lk/4dnJ/Wt+TfDn8ZbwZyzFbC2lUFYB015j2baX6EHmhB6cjN2nN2lsng4bPwxycf+4rX1H7wD+iOU19P1Kqq0laS2jNWoODxlPTOkRIfYPiLFzk38e1X4cV5OvoyHiJMTUUCIiAIiIAiIgCIiAIiIAiJF7a27jYSb+Rata9NeLMeyoNWY/AQCUlX8e7eODiO6cbrCK6R1Nj8AdOunP5CRY8eXXa/RNm5Nq9HfdrU/wCo8pVdv7YyWzMS7aOJZjU0ht0jSyvzW0Cs7LqAB9+uki5JHUrk54f2SMSha+bn27WPEvY3vMT17fKfG3HCWYNjcErzKyx6AOroCf8AM4kqjhgGUggjUEHUEHkQZizMVLketxvI6lWHoe3rMilaV2anG8bIvkSieF/ETY7LhZr6MNFovY+zenJVZjytA4EHmeWuvG9zYmmroytWwyE2/wCF8PPCjJpDlfdbUq49A6kHT05TY2JsHFwUKY1S1qTqdNSWPdmYkn5mSk1c7Mrore2xgqIpZmPIAf1ynThzrw8u4cyr/DzbwPgzl1/BhJiQ/hkO1VlzqVbIutu3W94I7E1g+u7pJiYp+5myHtQns8iQJFe2x4eLMcnFYU5A5/YtH2bF5ce8nvCHiVMpTTYPLyq/Zepve4fWX7S6dZ9yL2zsKrJ3XJZLU/Z21nddO3Ecx6GdXFvO/JF3tZG94h8IpafpGIRjZie0ltfsh257toHBgeRJB9dRwkp4N8TfTVeu1fKyqTu3VHgQftqOqnv6/CVfG8VZOCQm0VNlfJcupdRp3trHFT30Hw1m54kwDd5W0tnurZFQ1BQ6rfV9atiOZ05a/DnppohJrD0UTinlbOixIjw3turPx0vr5NwZT7yOODIw6EH/AGPWS8vKhERAEREAREQBERAK74x8RLs/HNm7v2OQlSdXsbkPgOZ+HrKZsDZLNd9JzNMjIbid/ilQP1a15DTlrPvxBd9L2sVPGvCrGg6edYNdex0X7jJ/CTRde/8AQnk9Z1MvVVODtbL/ANHo9NQjwc5K98InK7Qw4fd2nzkUJYjV2KHRgQysNQwPMESPrsKnUSQptDjUfMTtOryw9nKlPj8HMvKy9nZYwKjUardXxmyGcADrSHXqDy1/3k7a+0qRvXYG8g5tj2hyPUVMASPnLFt/YlWdS1Vo67yOOD1uPddD0I/HlOM+Pdr7XpdMXJuYIiAI9eqC5QTpYzDizaaAjppy4knbFRnvZlblHWjodduLn1Mns2JydGGjKezKfaRhPMb+0cPhjZCXVjlVlakqOy3LxI/mHzM5t4WvL2YyJkAZFm+EfRta3HBKrieFiP8APdLS87Q8UijFussrKX1MKnqP1bSPZ49UI1YHqBDjKL/E6pRkvyJw+J9qngMPFDdzkEj/AEhdZG5OPbkOr7QyK30O8mOnsUqeYJDHesI9eE4jbtS93NjWuXJ1Lbx11+XKdU2bsKny0a5Bdayqz2WjfYsQDoN7XQDkAO0lNtLLIxUW8IuisDxBBHccR+ESpbOqGLmU11arXetoeoElFatC6uqn3eW6dOB3pbZnasaE7iIiROiIiAeMoIIIBBGhB4gjsRK8dlX4Lm7Z5AB42Yrk+XZ61/Yf+vQ2KJJSaOOKZV/DO1bXzbf7OrC+em9k037yrjXKd3zBoPbDA66Lz66cJa9q4e0cWpr6sq7JtGmtXlVGpu+7XqroPg7H0Mg9s7D81lvoc0ZVfuWr1/gsHJl+P5cJu7A8WZ2YzY25j0ZVajf80u2+ft1Vrpqmmh97r85rhNSRlnBxZcNg7SGVj1XAAF0BZdddxvrIdQDqDqOI6STkXsPZf0WsoXNjM72O5AXedzqxCLwUa9BJSTICIiAIiIAiIgHHfClnmjKyDxN2Va/yDEKPgBLpUNFX4CUjwSm7juh5pfap+IYy7UnVV+E+bm79TO/k9yCtRjbwZJ9IxB1E+YlidjhJVWBhqJHeI9gU59LU3Lw5ow95G6Mp/MdZ9VWFTqJIo4YAibKNW/yY6tO3wcn8A+G6dn7T3Mxit43voxOgqtBG7vK329CfZPfvpJn9I+wxkZgrDbn0nGJ104eZjuGQkfyM4+ctviHYVOdUa7QQRxR14PW45Oh7jt1lFOXlfTsPGziofHW413a8MkOgRQOHBtCSR/D6iblU5RfkyONpLwU3wv4PNhW61huBtUVeO/usRqSeS6j4n0lz2ztX6Oo3a2ssYHcqQEs26NWYgAkKBzMwU3DB3qcjVEDuarCD5bIzlgpb6jLrpoewmXZW1LEyvp1dJtxq6jUxHCxwzBnelT74XQdRrodOkh7pflon7Y42SGxPDV1laZ+Nl1322JoyOulQBIJrrK+1WQRoddddOM39n7R81nretqr69PMqfmAeTqw4Oh6MJJHZFdy/Tdl3LXY43/Z/YXH7N1f1SeW8AGHrppK9iZl20b68uytKBQttQVG32sfeC2b76AeWGU7oGvMydSEbXI05SvYnYiJlNIiIgCIiAJDeINjtfuW0t5eVUd6qwcOI47jHqp5ceHE9CZMxOptO6ONJqzJLwX4mXaFRLL5d9R3LqjwKOOuh+qeOh+I6SyzlO2KLcW5doYo1esaXVj99V9bh1dRxHw9OPRdi7VqzKUvpbeRxqO4PVT2IPAibISUlcyTjxdiRiIkyIiIgCIiAcj2ZWKszadPbJNgHYWjf+7iZaMJtV+B0kL44p+ibQx8rlXkL5Fp6BxxrY/lqemsk8J9G07/mJ871kHT6q/aR7XSy50Ld0SERE6SEy4926fQ/1rMUTsW07oi0mrMlQdeIkZ4h2FTnVGuwEEHeR14PW45Oh6H06z7ovI+H9cpIKwI1HKbaVTllbMlSFsM57gbRtx7BhZ2nmfurdP1d6jhrx4Bx1H9Gwgaemkk9tbIozKzVegZeYP1kboyNzVpSHy79luKswtZjkgVZWhJA6JdpxDD7XX16X25aK07bN67Ya62eXdfQtv7WupgqWa8zoVO4xHMrprJHGx0qRURQqKAFUcgBMiOGAZSGUjUEEEEHkQRzE9kXJvDJJJaEREidE9nkQDRydq01t5e8Xs/w6layztqUQEgepnqbSXfWuxLamb3BahQOeeiN7pbTju66+k3/AACUoF2HuorVaP5igA2V2F9x7D1cbpUk893XrPrxXdiZuO6rm46+USzA2VvWSBwW1NdefEEEMCAQdZoVGLWyh1Wno+J5I/w+1hxaDYWLmtS29rrxHXXjy78e8kJQ8F6yeylbUzcrYlxycUb+La/62k+4rnqCPc3ujd+B14S6THk46Wo6OoZHBVgeoMlCfF3IzjyVib8LeKsbaNe/S2jj3624WIexXt6jhJ+cNwNibmR9F8xqMtAXwspeHm1jj5Nv2yummh46DT3dBL74a8YM1gw89BRljgvSq7s1Tcjr2+XPhNakmZHFou0REkcEREAgvF+wlz8S2g8GI3q2+zYvFG+/gfQmUTw5tBrqhvjdtrY12KeaunA6/Hn851ecv8Z4ZwM1cxB+oySK79OSWD9nYfjxGvx7zB1/T+tSutrKNfSVvTnnT2WOqzeAM+5HYluh06H85IzyKU+UbnpzjxYiIlpEGZKLip9OomONJ1Np3RFpNWZKK4I1HKfORQliMliq6MNGVhqCOxE0abinqO0367Aw4TZTqp/JlnTa+Ch5uw8jZhazEDX4mur45OtlfdqSeY/h/oSOytqU5Sb9T7w5MDwZD1V15qZbpU/EHhDzLDk4j/R8rqQP1dv8Ni9/4h3468NL7qWynMdaNqJB7N2+TZ9Gy0+j5I+qfcs/irY8we0nZFprZNNPR5EROHSIzdk+fkBrB+pWrdKhyBYxfXdsQH2kUDUA8CXPabp2dR7P6mr2fd/Vpw+HCbUSV2csj2eREidEREAivEWyPpVWinctrYWVWcili8V49ASBM+zmo23h7mSm7dW25YB7NlVq/XQ9NefbpN6VzatjbPyUz0H6piteWo6oSAln8yn/AI6yyL7fsVzXcltmeIcjZtiYu0W36XO7Rl9D2ru+y3r/AOR0FXBAIOoPIiQeXi05NRR1WyuxRwPEEEagj/mVbZGfbsfIXFyHZ8KxtMe5zqamP7mxu3Yn/oXwqcsPZRKFsrR0iIiWkBNDbGzK8qmyiwapYpU+nYjsQePym/EA5DsK2yl7cHIP67HOisf3lR4o478CAfl11lqxbtRoeY/ET5/SB4ee9Ey8Yf3rHBK6fvK+bVnv109SdOch9j7STJrS5OGvMHmrD3lb1Bnz/XUHQqepH2v/ACex0tVVYcHtFjiY6bQw1HzmSRTTV0WNWwxEROgT0EjiOE8iDht1ZfRvvm0G1kVPuuwryP8AxL4VmsSKZ0U9Hu3Nh4+bX5d9YYDirDg6H7SOOIP4d5S8oZmyv229l4Y0AuA1tpXl+sH1lHf/AKEv1WUp58D+H3zPNcKia8ozSg0/DKvhZld9Yet1dDyZT+B7H0meR21vBhrdsjZzLRaffrP7G0c9GX6h15EdzymrsvxAHfyMis42SOddnJ/Wt+TD+uMk490cUuzJuJ7PJAmIiIAiIgCY8ihLEdHG8jqVYHqCNCJkidBG/o/zWrN2z7WJsx+NbHm9DH2T/lJAP8wlh8SbOrysW+p1DBq2I9GUEqR2IIEpfid2xb8XPT92/lW+tVnAFvQHh/mEtmd4hxBTafPqDeW5CGxA+u4eG7rrrrJN3atsqtZO5s/o7zWv2biWMSW8vdJPM7hKak9Too4xMH6Lcfc2Via82Vn/ANTsR+Gk8m0zFviIgHk5d4u2YdmZBzKl1xbmH0hVH7NydBao7E8x/wAzqEw5WOlqNXYoZHBVlYahlI0IIldSnGpFxlpk4TlCSktlFxsgcGUhlIBBHIgyUrcMNRKdlYrbGvFDkthWsfIsbj5THj5Tt256E9vjpYKbip1HLqO8+bqU5dLU4y12Z7dOca8OUd9yUifKOGGon1Lk75REREToEREATLTkFfUdv+JiiFJp3RFpPDJOu0MOEj9u7Bx85Ny5NdPdccHQ9CjcxPlWIOo4TcqyQeDcD+E2Uq194ZmnS8aKFbdlbLYLl634uuiZKj20HQXJ/uNeXXlLDVYrqGRgysNQQdQR3BljsrV1KsAysCCCNQQeYIPMTn+1Ni3bLZr8QNZhk6243M1g87KTz0HPd+PoRpxL5KbuPwWCJgwstL60srYMjjUEfkexHLSZ5AmIiJwCIiARviLD8/FyK/tVtp/MBvKfvAkx4Iw8XI2biu1FR36lD61rxZfYbp3UzR2haEqtc8lrc/cplCx9nhNkizes31pZ0/WWBULMWBRA26DoRx0k1XjSS5d2kvshKk5vHZXOh7KxrsDaPkgIuHcjmpELEK9YUgbje4d3e13SQdAdBxibPhPY7vXh5V+TdewoR61fc0ra2sb51VQznRioLE6An4xNpkLhERAE8nsQDQ2tsyrLqem5A9bjQg/gQehB4gzlri3ZNq4uUS1DHTHyDy06V2How/L0nYJo7V2ZVlVPTcoethoQfwIPQjvKK9CFaHGRbSqypyuinVWlTqOXUd5JVWBhqJT87EyNjsFt3r8LXRLgNXpGvsravUD7Q7fKTWLkghXRgykagg6gj4z56pTqdLLjL29me1CcK8bx2TMTDReG+PaZpdGSkrog007MREToEREAREQDNTkFeB4j8vhN/nIylNWAkoBNdByayZaqSZzxMQYG0rMdBu0ZVZurX6qWqdHVR014cPVe0sMifFTb+1dnp1Sm6w/BiFH/AODJaaZ9mUQ7oRESBMREQCv+OMgphui+/cy0oO5sPtf/AFDTQ2nitd5GzKB7diKHPSulNAzn46aATX8Q7SRsvebjVhKXYD699nBEHduH4GXn9HmwHorfKyB/eckh3/gT93WPgOJ+OnSFR9SpG+o5+3r9iMqnCLtt4+i3Y1C11pWo0VFCqPRQAPwE8mxE9AxiIiAIiIAiIgGK6pXUqygqRoQRqCDzBE5vtjwZkYLNds726ySz4jnh3Jqb6p9PXtwnTIkJwjNcZK6JQnKDvF2ZyvZO268jUKSli8Hrf2bEPUFTz+Ik/Rla8G4HvN/xN4Nxs/RmBrvUexdWd2wdtSPeHoeXTSUfO+n7M4ZaHIoHLJqXUqP/AJUHL4/jrPGrfp06T5UXdeO//T06XWwmuNTD8l0nkhdl7WrtQPVYrr6Hl6Hqp9DJWq9W5Hj2MyxqZs8PwzQ4tK6yjNERLTgiIgGXFPtD5/lJKRSNoQexkoJqoPDRlrLNygu/n7YyrB7uPQlIP8TFnYfi33SckD4fP952p9r6Xx+G5w/3k9NU9lMNCIiQJCRfiHawxKS4G9YxCVJ1d24KNOw5n4Tcz82vHreyxgiKNST+AA6k9BKDk5d1ti5DKfpFvsYWPzKB+HnMO+h11P8A47/EvLOEl4I8PHKywrneqxX8y5j+9y346ctCEH3aes7VIPwlsFcDFSkHVvesbq9jcWYnrx4fACTk2wjxRklLk7nsREkREREAREQBERAEREAT5I1n1EApO2/0e41rG7GZsS/jo9XBCf4q+RHoNJWMqzaGCdMvGNtY5X4/tDTu6c16dvTWdcjSZ63TU6y/Jffcup1503hnNdl7fqyF1qtV+6ngw+KnRhJRc3uv3Te254Fwcs75rNVnS2k7jg99RwPzBlbv8LbVxv2N1eZWPqWjcs07BwSCdOv4TzKv6dVhmlK68M3Q62Everf3ROLlKeunxmQOD1H3ym2+ITQdMvGuxT9plL16ns6j8xN/F2nj2jVLa2+DD8piqOvT98P58mqHpT9siwNeg5sPlx/KSeHkK6gg69D3HxErOk+kJB1GoPcSFLrZQldrB2p0ykt5IrbYbZ+fdkNXY2LlKhd0Ut5dqaj2lHHQjr6+k2MbxPg2AFcqrj0Ztw/6X0M37ttGsHzLVUacd4ry9dZVc/auLlOUow1zbNdPYqUKD/FZpoPlPVpdUq2FBtmCdF09yRY0znucVYiJe+5vsfMVa6110BZxqdWOugAPI9pg2vtLKw0azIwbAgIUNXbU4LMdFG6CHAJ0Gu71nx4M2Vk7PzKzdXTUuYr1iqkH2GpU2qWbkSV3wflLb40/YVkglFycdn05hRap1HwbdJ9NZ6EaUbZRjdSV8HLE2TtjaVy2tiBK1Ota3HcqrPRmrPtOfkZ0fwn4NXDdsi6w5GU40a1hoFHVa1+qP69JboligllIi5NqzPYiJIiIiIAiIgCIiAIiIAiIgCIiAIiIAiIgGOytWGhAI7Eaj7pXNo+A9mZB1fEQNz3q96s699ayNT8ZZ4gFAf8ARfjD9nlZlfoLQQPhquv4z4H6Maz7+dmsO3mKPx3Z0GJDhHwiXOXkp+F+jfZlZDNSbmH1rnd/vUnd/CWnExK6lCVoiKOSooUD5CbESZEr3ijCtY42RSpezGtL7gIBdHreqwKTw3wr7w14Erp1lZxsjaOdXkYTIzVkBfpd1T0OEbXUeUV0stXT3l0Xkfj0eIB8IugA7AD7p9xEAREQBERAEREAREQBERAEREAREQBERAEREAREQBERAEREAREQBERAEREAREQD/9k=;fillColor=#F2CC8F;strokeColor=#E07A5F;fontColor=#393C56;" parent="1" vertex="1"><mxGeometry x="63" y="527" width="30.19" height="33" as="geometry"/></mxCell><mxCell id="xYVlEia6IdGVw25vf1dU-69" value="" style="shape=image;verticalLabelPosition=bottom;verticalAlign=top;aspect=fixed;imageAspect=0;image=data:image/jpeg,/9j/4AAQSkZJRgABAQAAAQABAAD/2wCEAAoHCBYVFRgSFRUYGRgZGBwZHBkcHBgZHBoVGBwaGRoaGBgcIC4mHh8rHxgaJjgmLC8xNTU1HCQ7QDwzPy42NTEBDAwMEA8QHhISHjQhJSsxNDY0NDQ0NDQ3NDQ0NDQ9NDQ0NDQ/NDQ0NDQ0NDE0NDQ0NDQ0NDQ0NDQ0NDQ0NDQ0NP/AABEIAPAA0gMBIgACEQEDEQH/xAAcAAEAAgMBAQEAAAAAAAAAAAAABAYCAwUBBwj/xABEEAACAQIDBQYCCAMFBwUAAAABAgADEQQSIQUxQVFhBhMiMnGBUpEUI0JicoKhsQeSwVOiwtHSM0NUY7Pw8TRzg6Oy/8QAGQEBAAMBAQAAAAAAAAAAAAAAAAECAwQF/8QAJREBAQACAgIBBAIDAAAAAAAAAAECEQMhEjETBEFRYTJxFCJS/9oADAMBAAIRAxEAPwD7NERAREQEREBExJtqZwdo9rMNSuobvGH2U8WvIt5QfUwO/F58/wAX23rNcU6SIODMWc2/CMov7mcTGbYxFTz13t8KnIP7lj8yZPjVLnI+q1MSi73UepA/eZU6isLqwYcwQR8xPiGIw1M+J0Vj8TDN8yZ0uxGPOHxC2JFOq4Qpc5VDeFGCk2Bz29niywmcr7FERIXIiICIiAiIgIiICIiAiIgIiICIiAiJDx+NSihqVGsB7kngAN5J5CBLJlY2x2tp07pS+scaEg+FT1biegv1tKxtnb9XEErqlPggOrD77Df+Eaes5QAEtMfyyy5NekjaO0K2IP1zll+AeFB+UHX3vImQCbLzBwALk2HOX1Iytt9hmms6rqxty5k8gN5PSamxDNpTXT428vsN7ft1mS0QPEbs5Fsx5cgNwHQfrBr8tLIX1cWUbk58i/8Al+/DXjmKozjzIM6/iTxL+oElNNTi4K8DoZVaV9twlUMiuNzKCPQi83yv9hsV3mBw5JuVpim34qfgb9VMsEo6CIiAiIgIiICIiAiIgIiICIiAiIgaqrhVLE2ABJJ4Aakz5jtvajYioahJyC4ReS87fEd5+XCfSsbhhUpvTJIDqVJG8BhbSfHMfhq9Go9Cq4DKbqQls6X0dSWOnTgdPWcdbUz3rpI9JorYlE8zi/LefZRrIwpg+Znb1Nh8lsD7zOlTA0VVUdAB+0vthpsNV38i5B8T7/ZBr87TxMGL5nJcjUZtw9F3e++SESZkSdI21uZg0yaYOdII0O08XSDNdMamVXfQP4Z4m9GtSvqlZmA+7UAe/wDMWl2nyz+HuKyY16Z8tWkLfjQn/CZ9TlG8u49iIhJERAREQEREBERAREQEREBERAThdp9gJi6WXRai606lrlG/qp3EcRO7PDA+I1aTozU6iZHQ5XW99eanipGoP/iZJPofbDs936d9TH11MG24Z03mmx/UHgehM+dob6j/ACPoQdx6S+N2wzx0lIZkZqpNNt5dm1uJqcTewmp1kERmEwA3za4mFpC7DCYs0cThqw0CVlDHd4H8D39jPugnwpcC1c9wo1YWJ4KvFz0F/c2EvmG7aU8Opw1fvHrUmyXVCe8QAFKhY2UFlIvrvDTO2b02x9L1EpVH+IVM+bDYhdf+U2nOy1CZZ9lbUpYhO8pOGXceBVhvVlOqkcjCyfERAREQEREBERAREQEREBERAREQMSJ8x7ZbM7jEd4otTrknTctYasPzAZvUNzn0+cvtBspcTQeiTYkXVvhddVb2IEekWbmnykGxm8GRkzC6OtnRijryddD7cR0Im4PNZXNZpk5mJOkwdwN5kzAbPq1/9mlx8bXVB1zcfQXkZZSeyY2+kBpvwGzamIPgFk41GBy/l+M+mnMiWfA9mKaEGqe9fkRZB6Jx/MT7TvsgAAFunT0nPnzfbF0YcX5cvZ+zEoplRTc2ux1dzzY/sNwlQ7aBBiUCHxmmc45AN4CTz1eWPtB2iTD3poM9Yjwp8I+Jz9lZRKVBizO5zO5LO3Nj+wG4DkJXixyuXktnlJNMGoWUlc2YAkHMb39zYy8fw2rfX4hM3+7pOy8MxNRc3rZQPYSpXCgsxsBqTyE+j9hNjijSasbd5XIdrfZQCyIeoBJPUkcJ0Vnh3drZE8nsq0IiICIiAiIgIiICIiAiIgIiICImuo4UFibAAkk8AN5gUDtxsQrWTEpYLUIp1L3sG3U305nwn1WRsJ2XufHVJ6KuTTlckn9pz+0+3fpjWUkUB5Rqucjc7fuB7+nT2V2mp5FWqWV1ADHKSGIA8QIBGvKUz8pOkTwt/bt4HYlCmQy00JH2m8bezNe06lSottLkysV+1dJQcodyOSsL+hYAfrONiu1eIcZURKQ5nxvb08oPzmMwzyWtxn3XHHbRp0U7yq6ou7xEC55AcT0EqO1+1Lv4MPdU+Nh4jf4VPl9Tr0ErrUszmo7O7/G7Fj+Xgo6C0LVv5Bm+9uQW+8d/tebYcMn8lMuX/lkUCgsTvOZnY3JJ4sTNq1FRc7GwPPT00kNGZ2y00as44hGZFP3VUE+9ieoll2bskUmFSrh8RVqDUMaThE4HInA9TczaWRn4291hsnYT1WFaqMqDyUyNSeDv15Lw3791kobOenrRqGmb30AKE/eTcfUWMmYLFI+isLjepuHHqpsR8p0VQS0kqlyuP6acHtplsuJUJfQVFuUJ+9fye+nWd5SDrOM9G9xwPCc6pj3woCohqI7BEQsF7t2NguZvsHh8J03EWrljrtrhyeXVW2JxMM2NYAuMPT+79ZUPuQVH7yWMUyf7VQBp41N1udPEDquvHUdZntrp0IiJKCIiAiIgIiICIiAiIgJXu2zMMFVychm/9ssBU9smb2lhmFRQQQRcHQjpA+DM9mzEEgqApXWw4i3XnJSDTlLftrsrQOIp0qOaldXqPlN1CCyqqo11S7NfQbkYenp7Ep/xFb/6f9EvjusMtY3W1Jeq17KjMfYD5sRMKtRh5mRL7h52PoNBf5y+r2Ko/aao3q5X9EyzpYTs/Rp+RFU8SBqfVt5k+NV8sXznDbLqVbMEbL8dXRfy0xvPqB6yzdnuzS1mOds6UzlY7gXFiURenEm++wsbkWPH0lp03qHciMx9FBM4+3kqYbY7d1cOaal2XQhqjA1X6HxMb8JXLprx6yW3BYnDKe4ptTUj7ClQfkN86Qn5RxFdVFJ6LVe+8TOTZQr5vB3RU3tl334z9QbGLmhSNTzmmpf8RUXlJWtj3H7Np1gM66jyuNHU81Yag/vxnDw+JdKrYep50AZX4VKZ0D9GB0I567iJaZwu09AZUr7mp1FF+aVGFNlPS7K35BLY3VZ54yxJU3F5F2jhVqIyNuYWuN4PAg8wdfabcM3hnA7R9p1wzd0q5nyhtTZQDcC9tSdDpNrrXbmm99LRsTFGpRUt51JRuroSpI6G2YdDJzoCCCAQRYg7iDvBE+X7A7YutazqpSrVQMAGBUvkphlJJvwJFtdZ9TmFmnXjdx817N7exSbWrbLqMalJQxQsBmRAA6WbewysFN7m/GfS5xNnYemcViaoRc4KU2a3i0po+XNys66ek7ciLUiJGxGKRCqsbFjZRYm50HD1ElCTERAREQEREBERAREQK61O+LqueFOkg9jUY/8A7Hyk60juLYioOaU2/wCov+GSZth6cnL/ACpERLs3P25hy+HrU13tTdR6lSBOjs8JVw6ZlDI9NbqdQVZRoee+eTmbHxH0eocJU0VmLUG4ZSbmnfmCTYcvSZck+7o4cvcY4bsHgKdQVVw65gQygliqsNxCk2FpZ7RPZm3eSv8AbGp9QqDzVK1JVHOzq7f3UY+07ruACSbAaknlKZicZ9LxCsmtGlfI1tHqNoXXmoGgPHM0e7pGV1Np+IxfdU89rklUVfid2CIvS5I14SPtDsZTr+N6r96bZnFsthuUIRYKOHHmTJO1MKz0SqWDqUdL7s6OrqD0JUA+sxobZxDv3K4Xu6mXMS9RCgW9iwyXZteFh6iTyeW5pnxSWXftHwfYTDJdmzu32WZrZDwZAtgGHBt45zdsLtCXorTPjxKu9IqOJpO1M1X+BDlzXPoLmwnKpbWxteuuFWrh6ZdKzZhTdmRaNXuWy/WWZjvF7W5G0uGydmJhqa0qYNhvJ1ZmJuzOeLEkknrKTba6nTLZuE7tbE3djmdrWzOQAT6WAA5AAcJOnM21tHuKRqAZmuFVRclmPQamwuxtwUzDD42oyB1FOqhFwUbKSPuhrqfdhLIdWQtpVSqqdAM4DMRfItj4reoAvwzX4RTxyuGCauoJ7tro1+FwRcAnTNqPWNm1KjJequVrnhl8PC65mseG/hfS9oGeBqllJJvYkBrZcyjc1v0vuNrjQyXEQEREBERAREQERPDA4u0bLiKbXHjRkI4kr4109M8kSlYgNUr1augrU8QchcmyqjWFO41VXTl8d7HdO2naOkule9E7vH5D+GoPCfQkHpNsep25OSy5WR2omqhiUcZkdWB4qQRb2m2WUJrxFBXUo6hlPA/05HrNkRSIdJa9IWSoKijctW+YDl3g1P5gT1mDbWxO76PTB61G/wBE6E8lfCNJy5RwsRha+INsQwyf2SAqp/Gbkv6aDmJ08NhFQAAbt3SSokzGRW53L2xKyDjsK7MtSk4R1BUMVzqVaxKutwSLqDoQdJPMxaLN9UmVl3FV2JsN6GMpVqlbOzGogAXIqowqVXspJuWexJvwEv8AK7XrIlakzMFVc7EsQAAEy3JO7zTs/S0NM1VYMoUtmUgggC5sR6THKSXUdOGVym6gg95iGP2aICjl3rjMx9kKi/32ntfZSkl0ZqTnUslhmPNlIKsepBPWQMDtAqvdomep56hJyotR/GVL2NyM24A2GW9riZ4nH1UUu9SiijUkqzAfmLr+0r5Se2nx5XuNe06GIHdsaiErVphStNlezOoYZu8IClb5tN19OVmld2XiziGpMw0VTVJtlBzZkpHKSSMy5nsTcaSxSUdzqvYiICIiAiIgIiICeGeyJtHHJQptVqNlRBcnpApHaagPpqmk5pu1ItVsAytZlSlnTmfGLggkIOQmzCM5BWoFvuuvlcc8p1Hob7t5mvAU2qM+KdSHrENY70prpTQ+gJY9XadNEnVx42Y9vN585crpx32RTzZ0U034tSY0yfULo3uDJdDF4mnazrWUC1qgCP650GU+mT3EmtTE1MglrhGc5cokYfb6EhKoak50Ae2Un7ri6t6Xv0nXVgdRK3WpKRlZQykaggEH1Eg4d6mHYvRLOgGtAm+n/KY6g/dJsekpcbGuOcy99LpEibNx6V0FRGup9iGGhVgdQQdCDukuRF6SNtDE93Tepa+RGa34QT/SSZE2rSz0aifEjr81Iik9qTjts4lPGa9jxUImQHiAPNb1M5zdrsTVuhqooCFy1NQHsCBYliQu/lIOPxa1UUG2qjwEEsdLkZBqbcpDpdm8RU8YK0lIK5St2Kkg5io8u7d79Jlle+m2ON12zXab1XYVHFQI9lLnMyoyKRZbBc1z595l+7MvfZ+KI3Z64X+UA7vvXPvKPs/YRAVs4s7qL5dLM6optm5W+Vp9Wp7HWhg6mHQkkpUJY2BZ3DEsQNBqd3ASuXrtph3dz+nI2Zs4MatTvKi569W6q9l8Dsg0tp4UG60Y3B0lOTIWsMzsSzuEJyhULEkO7eEWt9o7xN+BZ0VxkbV3qK58KFKpNTMXOigFyCN/hOh0vK2JhO8IqEkorZgSMve1f7TKdQijRB0vwBmMxtvbqucmMkdTZGENNLvbO5zPbcCQAFHRVAHtedKImrEiIgIiICIiAiIgeSldrG7/ABFPCHyU1Fd1+NsxWmrdLqzewl1lIcE4zFOeD00H4VpI4/V2luObykrLnyuOFsS0FplmnnSY9Z3PJZsZgRCmYuTvgR2a4vI9DEKSQCLg2I62vb5EGc/ZeNvnoWZ6iO4KqCzZCxZCeQysupnmCwpGJqO6MhCoQrZdM4KlgFJ3hANevOY+c3JHR8dktvpPw+LGGrh7HJW8LhQSRWUEo4UC5zKCD+FeZljXaKEX8f8AI4/dZU9uI3dsyedBnX8aeNf1FveXrZdYPTV13MoYehF5z83JcMup7dPBjM8e/cQjtBOZ+TX+Vp59PU7lqN6Uqh/wztxaZf5F/Db4cVdfB5iSuHYE72IRL+tzm/SaMZRp0EapiKioqqWKoSWKqCTrbMdBuUA9ZaZwe2JUYSqp0NVRRuN/1pFPQ9AxPtKfLlldLTCY9qZhMGXFCklqbPUFQDKCECsaxUqpF1FguhG8S4bW2u9Kky1EUu4yUypOV6r2VVIOqG7A210B10nJ2Fsk1neqtR6YpgUkZMvm0aobMCrDRF3aFWnm0qbpWao9Z664WmaioVpopxNS6UUBUC7WzbzpnQzbPe9T0cU/13fd7dDZGF+kEo5zUcMVoqn2alWkozu/xBWsoU6XViQdLWyc7YuA7iglK92UXdt2aoxLVHNuLMWPvOjCxERAREQEREBERAREQPJUsQmXE4j7zo/saaLf5oflLaZUttkrjVHCpQuPxUn8X6VVl+O6yjD6ib46yvPGHCAZ7O15bEC2kMZ6DxngECLSJo1TXRM2ZcjquUMwGqsLkAldRbkx5AHWrtUqPXZSmcKiqSL5EzWJtpclm/STGE1sLCZfHj5eTb5srh4fZHxKgqQeKkfMTtdiyTgsMW3mihP8onDxz5Ueodyox+Sky27Jwwp0adMfYRV/lUCcn1f2df0fqpsRNdWsqjMzBRzJAH6zkdjZKT2wx2asmHQ3KeMjeO8ZSEzdFTO7cQMvMSwvtXMD3KGobXzeWn6modGH4c05PYfZ4aiuNqeOtXDOzndlc3ARbeFSoXrYKCTYTTine0ZTc024DbCUcOi08PiXUKMpWk16hOubXdmJzXNt8hKhaphaVRcr4iq+Lqo2/wCqVWRPVGNEf/HLGdnshvQYAf2beT8hGqe11+7Im0HVgpqK9J0bOtTLmVGAIJzLdcpBKkNa4J3G03Rt34nK2BtM16WdlykOyG2qsVNs6HijCxHrbhOrAREQEREBERAREQEREDyV3tYoUUaxsMlUJfmtUGnl/nKH8ssUqv8AEUH6ExW11qUWF+lVJM6u1c5vGxpzTMNNV+E8Z7Tu28fTa5gGY757aSh7aeuBa0wd7SDtHaApJnYFiTlRF1Z3O5VHP9tSdBItkTMbb09rp31anhF4kVKlvs0kYHX8bAL6ZuUvKiUTs539HvHagHq1SGdy4CqAPDTXQnKoJ4am54zrPjMW39lTHMZqh9gQvznm8sy5MtydPW4pjx4ybWa8gY6tQQq1UpmHlzZS2vBb68OEr1XDVXPjr1GHEAimPbIAf1kPFUhSASko72o2RNNWY8WO8gbyZWcN91b5Jeo7r1nxqtTpZqdElkaqRldgDlZaSnUG4ILm1uAO8dzD0FpotNQFVQFVRuCqLAD2EwwGFFKmlIblULfibC1z1MlS8xmPpfZERLIIiICIiAiIgIiICIiAiIgeSsduqoNGnQJ1rV6agcwjd6392mfnLI7gAk6AC5PSfPdoY36TiBiDcUqSstHf4y9g9UjqAAvQk/alsZuqcl1jUutiFUXPQAAEkngABvPSQ8RjHRkNShUUObLcDU6aebQ66A6mWbs/skr9fVH1h8oP+7Q8PxHj8uGvWx2GSojI6hlI1B/70PWaZct3058Ppp49+1N+mWGqVFPMo4HztaYDaF9Ajt6I5/ZZ2dktfC0XfxsyIbnecwvc9bTDZ2Jq1E7xcOSpZgpV08SBiA1mIte0jHm2jL6XX7co067+VAg4Fwf0QEH5kSVs/Y+V+8di72tnb7IO8Ig0QempsLk2nUY1f+HqE9Go/wBXmLVq40GEqH89AD3OeTcpfdTjxXH1G5UEwY3kZ6GOfy06CbvPUdj8kT+s209gVH/9RW0+CiGpg/icksfbLK3OLziyvtDxO0UQmmLu/BF5/ebcu7iZN7M7PBAxjNmeqgK7wtOm1mCIDrfdmJ1JHC1hyKOGTD5qNRcgDsUqHyOhJK3c/bsQDc3Nr6zudmcSvdmmCCEdlUjUFT4hY9M2X8sy8rbqt8eOYzcd6JjmE9kpexEQEREBERAREQEREBERAREQI2Mwq1Uam18rAg2NjY9ZCwmwqVNg/idgbgsQbHmAABfra86sQiyV7MHW4I5iZxCVTTZmJVBh0C5FGRalwCqbvJxYDduH7mwYRQiLTVMqqoVVG4KosAJLiVk0m3bAOJkGE9tFpZBeezy09gYkXmPdDlNkQNfdCZZRMogIiICIiAiIgIiICIiB/9k=;fillColor=#F2CC8F;strokeColor=#E07A5F;fontColor=#393C56;" parent="1" vertex="1"><mxGeometry x="562" y="577" width="24.51" height="28" as="geometry"/></mxCell><mxCell id="xYVlEia6IdGVw25vf1dU-71" value="" style="shape=image;verticalLabelPosition=bottom;verticalAlign=top;aspect=fixed;imageAspect=0;image=data:image/jpeg,/9j/4AAQSkZJRgABAQAAAQABAAD/2wCEAAoHCBYVFRgSFRUYGRgZGBwZHBkcHBgZHBoVGBwaGRoaGBgcIC4mHh8rHxgaJjgmLC8xNTU1HCQ7QDwzPy42NTEBDAwMEA8QHhISHjQhJSsxNDY0NDQ0NDQ3NDQ0NDQ9NDQ0NDQ/NDQ0NDQ0NDE0NDQ0NDQ0NDQ0NDQ0NDQ0NDQ0NP/AABEIAPAA0gMBIgACEQEDEQH/xAAcAAEAAgMBAQEAAAAAAAAAAAAABAYCAwUBBwj/xABEEAACAQIDBQYCCAMFBwUAAAABAgADEQQSIQUxQVFhBhMiMnGBUpEUI0JicoKhsQeSwVOiwtHSM0NUY7Pw8TRzg6Oy/8QAGQEBAAMBAQAAAAAAAAAAAAAAAAECAwQF/8QAJREBAQACAgIBBAIDAAAAAAAAAAECEQMhEjETBEFRYTJxFCJS/9oADAMBAAIRAxEAPwD7NERAREQEREBExJtqZwdo9rMNSuobvGH2U8WvIt5QfUwO/F58/wAX23rNcU6SIODMWc2/CMov7mcTGbYxFTz13t8KnIP7lj8yZPjVLnI+q1MSi73UepA/eZU6isLqwYcwQR8xPiGIw1M+J0Vj8TDN8yZ0uxGPOHxC2JFOq4Qpc5VDeFGCk2Bz29niywmcr7FERIXIiICIiAiIgIiICIiAiIgIiICIiAiJDx+NSihqVGsB7kngAN5J5CBLJlY2x2tp07pS+scaEg+FT1biegv1tKxtnb9XEErqlPggOrD77Df+Eaes5QAEtMfyyy5NekjaO0K2IP1zll+AeFB+UHX3vImQCbLzBwALk2HOX1Iytt9hmms6rqxty5k8gN5PSamxDNpTXT428vsN7ft1mS0QPEbs5Fsx5cgNwHQfrBr8tLIX1cWUbk58i/8Al+/DXjmKozjzIM6/iTxL+oElNNTi4K8DoZVaV9twlUMiuNzKCPQi83yv9hsV3mBw5JuVpim34qfgb9VMsEo6CIiAiIgIiICIiAiIgIiICIiAiIgaqrhVLE2ABJJ4Aakz5jtvajYioahJyC4ReS87fEd5+XCfSsbhhUpvTJIDqVJG8BhbSfHMfhq9Go9Cq4DKbqQls6X0dSWOnTgdPWcdbUz3rpI9JorYlE8zi/LefZRrIwpg+Znb1Nh8lsD7zOlTA0VVUdAB+0vthpsNV38i5B8T7/ZBr87TxMGL5nJcjUZtw9F3e++SESZkSdI21uZg0yaYOdII0O08XSDNdMamVXfQP4Z4m9GtSvqlZmA+7UAe/wDMWl2nyz+HuKyY16Z8tWkLfjQn/CZ9TlG8u49iIhJERAREQEREBERAREQEREBERAThdp9gJi6WXRai606lrlG/qp3EcRO7PDA+I1aTozU6iZHQ5XW99eanipGoP/iZJPofbDs936d9TH11MG24Z03mmx/UHgehM+dob6j/ACPoQdx6S+N2wzx0lIZkZqpNNt5dm1uJqcTewmp1kERmEwA3za4mFpC7DCYs0cThqw0CVlDHd4H8D39jPugnwpcC1c9wo1YWJ4KvFz0F/c2EvmG7aU8Opw1fvHrUmyXVCe8QAFKhY2UFlIvrvDTO2b02x9L1EpVH+IVM+bDYhdf+U2nOy1CZZ9lbUpYhO8pOGXceBVhvVlOqkcjCyfERAREQEREBERAREQEREBERAREQMSJ8x7ZbM7jEd4otTrknTctYasPzAZvUNzn0+cvtBspcTQeiTYkXVvhddVb2IEekWbmnykGxm8GRkzC6OtnRijryddD7cR0Im4PNZXNZpk5mJOkwdwN5kzAbPq1/9mlx8bXVB1zcfQXkZZSeyY2+kBpvwGzamIPgFk41GBy/l+M+mnMiWfA9mKaEGqe9fkRZB6Jx/MT7TvsgAAFunT0nPnzfbF0YcX5cvZ+zEoplRTc2ux1dzzY/sNwlQ7aBBiUCHxmmc45AN4CTz1eWPtB2iTD3poM9Yjwp8I+Jz9lZRKVBizO5zO5LO3Nj+wG4DkJXixyuXktnlJNMGoWUlc2YAkHMb39zYy8fw2rfX4hM3+7pOy8MxNRc3rZQPYSpXCgsxsBqTyE+j9hNjijSasbd5XIdrfZQCyIeoBJPUkcJ0Vnh3drZE8nsq0IiICIiAiIgIiICIiAiIgIiICImuo4UFibAAkk8AN5gUDtxsQrWTEpYLUIp1L3sG3U305nwn1WRsJ2XufHVJ6KuTTlckn9pz+0+3fpjWUkUB5Rqucjc7fuB7+nT2V2mp5FWqWV1ADHKSGIA8QIBGvKUz8pOkTwt/bt4HYlCmQy00JH2m8bezNe06lSottLkysV+1dJQcodyOSsL+hYAfrONiu1eIcZURKQ5nxvb08oPzmMwzyWtxn3XHHbRp0U7yq6ou7xEC55AcT0EqO1+1Lv4MPdU+Nh4jf4VPl9Tr0ErrUszmo7O7/G7Fj+Xgo6C0LVv5Bm+9uQW+8d/tebYcMn8lMuX/lkUCgsTvOZnY3JJ4sTNq1FRc7GwPPT00kNGZ2y00as44hGZFP3VUE+9ieoll2bskUmFSrh8RVqDUMaThE4HInA9TczaWRn4291hsnYT1WFaqMqDyUyNSeDv15Lw3791kobOenrRqGmb30AKE/eTcfUWMmYLFI+isLjepuHHqpsR8p0VQS0kqlyuP6acHtplsuJUJfQVFuUJ+9fye+nWd5SDrOM9G9xwPCc6pj3woCohqI7BEQsF7t2NguZvsHh8J03EWrljrtrhyeXVW2JxMM2NYAuMPT+79ZUPuQVH7yWMUyf7VQBp41N1udPEDquvHUdZntrp0IiJKCIiAiIgIiICIiAiIgJXu2zMMFVychm/9ssBU9smb2lhmFRQQQRcHQjpA+DM9mzEEgqApXWw4i3XnJSDTlLftrsrQOIp0qOaldXqPlN1CCyqqo11S7NfQbkYenp7Ep/xFb/6f9EvjusMtY3W1Jeq17KjMfYD5sRMKtRh5mRL7h52PoNBf5y+r2Ko/aao3q5X9EyzpYTs/Rp+RFU8SBqfVt5k+NV8sXznDbLqVbMEbL8dXRfy0xvPqB6yzdnuzS1mOds6UzlY7gXFiURenEm++wsbkWPH0lp03qHciMx9FBM4+3kqYbY7d1cOaal2XQhqjA1X6HxMb8JXLprx6yW3BYnDKe4ptTUj7ClQfkN86Qn5RxFdVFJ6LVe+8TOTZQr5vB3RU3tl334z9QbGLmhSNTzmmpf8RUXlJWtj3H7Np1gM66jyuNHU81Yag/vxnDw+JdKrYep50AZX4VKZ0D9GB0I567iJaZwu09AZUr7mp1FF+aVGFNlPS7K35BLY3VZ54yxJU3F5F2jhVqIyNuYWuN4PAg8wdfabcM3hnA7R9p1wzd0q5nyhtTZQDcC9tSdDpNrrXbmm99LRsTFGpRUt51JRuroSpI6G2YdDJzoCCCAQRYg7iDvBE+X7A7YutazqpSrVQMAGBUvkphlJJvwJFtdZ9TmFmnXjdx817N7exSbWrbLqMalJQxQsBmRAA6WbewysFN7m/GfS5xNnYemcViaoRc4KU2a3i0po+XNys66ek7ciLUiJGxGKRCqsbFjZRYm50HD1ElCTERAREQEREBERAREQK61O+LqueFOkg9jUY/8A7Hyk60juLYioOaU2/wCov+GSZth6cnL/ACpERLs3P25hy+HrU13tTdR6lSBOjs8JVw6ZlDI9NbqdQVZRoee+eTmbHxH0eocJU0VmLUG4ZSbmnfmCTYcvSZck+7o4cvcY4bsHgKdQVVw65gQygliqsNxCk2FpZ7RPZm3eSv8AbGp9QqDzVK1JVHOzq7f3UY+07ruACSbAaknlKZicZ9LxCsmtGlfI1tHqNoXXmoGgPHM0e7pGV1Np+IxfdU89rklUVfid2CIvS5I14SPtDsZTr+N6r96bZnFsthuUIRYKOHHmTJO1MKz0SqWDqUdL7s6OrqD0JUA+sxobZxDv3K4Xu6mXMS9RCgW9iwyXZteFh6iTyeW5pnxSWXftHwfYTDJdmzu32WZrZDwZAtgGHBt45zdsLtCXorTPjxKu9IqOJpO1M1X+BDlzXPoLmwnKpbWxteuuFWrh6ZdKzZhTdmRaNXuWy/WWZjvF7W5G0uGydmJhqa0qYNhvJ1ZmJuzOeLEkknrKTba6nTLZuE7tbE3djmdrWzOQAT6WAA5AAcJOnM21tHuKRqAZmuFVRclmPQamwuxtwUzDD42oyB1FOqhFwUbKSPuhrqfdhLIdWQtpVSqqdAM4DMRfItj4reoAvwzX4RTxyuGCauoJ7tro1+FwRcAnTNqPWNm1KjJequVrnhl8PC65mseG/hfS9oGeBqllJJvYkBrZcyjc1v0vuNrjQyXEQEREBERAREQERPDA4u0bLiKbXHjRkI4kr4109M8kSlYgNUr1augrU8QchcmyqjWFO41VXTl8d7HdO2naOkule9E7vH5D+GoPCfQkHpNsep25OSy5WR2omqhiUcZkdWB4qQRb2m2WUJrxFBXUo6hlPA/05HrNkRSIdJa9IWSoKijctW+YDl3g1P5gT1mDbWxO76PTB61G/wBE6E8lfCNJy5RwsRha+INsQwyf2SAqp/Gbkv6aDmJ08NhFQAAbt3SSokzGRW53L2xKyDjsK7MtSk4R1BUMVzqVaxKutwSLqDoQdJPMxaLN9UmVl3FV2JsN6GMpVqlbOzGogAXIqowqVXspJuWexJvwEv8AK7XrIlakzMFVc7EsQAAEy3JO7zTs/S0NM1VYMoUtmUgggC5sR6THKSXUdOGVym6gg95iGP2aICjl3rjMx9kKi/32ntfZSkl0ZqTnUslhmPNlIKsepBPWQMDtAqvdomep56hJyotR/GVL2NyM24A2GW9riZ4nH1UUu9SiijUkqzAfmLr+0r5Se2nx5XuNe06GIHdsaiErVphStNlezOoYZu8IClb5tN19OVmld2XiziGpMw0VTVJtlBzZkpHKSSMy5nsTcaSxSUdzqvYiICIiAiIgIiICeGeyJtHHJQptVqNlRBcnpApHaagPpqmk5pu1ItVsAytZlSlnTmfGLggkIOQmzCM5BWoFvuuvlcc8p1Hob7t5mvAU2qM+KdSHrENY70prpTQ+gJY9XadNEnVx42Y9vN585crpx32RTzZ0U034tSY0yfULo3uDJdDF4mnazrWUC1qgCP650GU+mT3EmtTE1MglrhGc5cokYfb6EhKoak50Ae2Un7ri6t6Xv0nXVgdRK3WpKRlZQykaggEH1Eg4d6mHYvRLOgGtAm+n/KY6g/dJsekpcbGuOcy99LpEibNx6V0FRGup9iGGhVgdQQdCDukuRF6SNtDE93Tepa+RGa34QT/SSZE2rSz0aifEjr81Iik9qTjts4lPGa9jxUImQHiAPNb1M5zdrsTVuhqooCFy1NQHsCBYliQu/lIOPxa1UUG2qjwEEsdLkZBqbcpDpdm8RU8YK0lIK5St2Kkg5io8u7d79Jlle+m2ON12zXab1XYVHFQI9lLnMyoyKRZbBc1z595l+7MvfZ+KI3Z64X+UA7vvXPvKPs/YRAVs4s7qL5dLM6optm5W+Vp9Wp7HWhg6mHQkkpUJY2BZ3DEsQNBqd3ASuXrtph3dz+nI2Zs4MatTvKi569W6q9l8Dsg0tp4UG60Y3B0lOTIWsMzsSzuEJyhULEkO7eEWt9o7xN+BZ0VxkbV3qK58KFKpNTMXOigFyCN/hOh0vK2JhO8IqEkorZgSMve1f7TKdQijRB0vwBmMxtvbqucmMkdTZGENNLvbO5zPbcCQAFHRVAHtedKImrEiIgIiICIiAiIgeSldrG7/ABFPCHyU1Fd1+NsxWmrdLqzewl1lIcE4zFOeD00H4VpI4/V2luObykrLnyuOFsS0FplmnnSY9Z3PJZsZgRCmYuTvgR2a4vI9DEKSQCLg2I62vb5EGc/ZeNvnoWZ6iO4KqCzZCxZCeQysupnmCwpGJqO6MhCoQrZdM4KlgFJ3hANevOY+c3JHR8dktvpPw+LGGrh7HJW8LhQSRWUEo4UC5zKCD+FeZljXaKEX8f8AI4/dZU9uI3dsyedBnX8aeNf1FveXrZdYPTV13MoYehF5z83JcMup7dPBjM8e/cQjtBOZ+TX+Vp59PU7lqN6Uqh/wztxaZf5F/Db4cVdfB5iSuHYE72IRL+tzm/SaMZRp0EapiKioqqWKoSWKqCTrbMdBuUA9ZaZwe2JUYSqp0NVRRuN/1pFPQ9AxPtKfLlldLTCY9qZhMGXFCklqbPUFQDKCECsaxUqpF1FguhG8S4bW2u9Kky1EUu4yUypOV6r2VVIOqG7A210B10nJ2Fsk1neqtR6YpgUkZMvm0aobMCrDRF3aFWnm0qbpWao9Z664WmaioVpopxNS6UUBUC7WzbzpnQzbPe9T0cU/13fd7dDZGF+kEo5zUcMVoqn2alWkozu/xBWsoU6XViQdLWyc7YuA7iglK92UXdt2aoxLVHNuLMWPvOjCxERAREQEREBERAREQPJUsQmXE4j7zo/saaLf5oflLaZUttkrjVHCpQuPxUn8X6VVl+O6yjD6ib46yvPGHCAZ7O15bEC2kMZ6DxngECLSJo1TXRM2ZcjquUMwGqsLkAldRbkx5AHWrtUqPXZSmcKiqSL5EzWJtpclm/STGE1sLCZfHj5eTb5srh4fZHxKgqQeKkfMTtdiyTgsMW3mihP8onDxz5Ueodyox+Sky27Jwwp0adMfYRV/lUCcn1f2df0fqpsRNdWsqjMzBRzJAH6zkdjZKT2wx2asmHQ3KeMjeO8ZSEzdFTO7cQMvMSwvtXMD3KGobXzeWn6modGH4c05PYfZ4aiuNqeOtXDOzndlc3ARbeFSoXrYKCTYTTine0ZTc024DbCUcOi08PiXUKMpWk16hOubXdmJzXNt8hKhaphaVRcr4iq+Lqo2/wCqVWRPVGNEf/HLGdnshvQYAf2beT8hGqe11+7Im0HVgpqK9J0bOtTLmVGAIJzLdcpBKkNa4J3G03Rt34nK2BtM16WdlykOyG2qsVNs6HijCxHrbhOrAREQEREBERAREQEREDyV3tYoUUaxsMlUJfmtUGnl/nKH8ssUqv8AEUH6ExW11qUWF+lVJM6u1c5vGxpzTMNNV+E8Z7Tu28fTa5gGY757aSh7aeuBa0wd7SDtHaApJnYFiTlRF1Z3O5VHP9tSdBItkTMbb09rp31anhF4kVKlvs0kYHX8bAL6ZuUvKiUTs539HvHagHq1SGdy4CqAPDTXQnKoJ4am54zrPjMW39lTHMZqh9gQvznm8sy5MtydPW4pjx4ybWa8gY6tQQq1UpmHlzZS2vBb68OEr1XDVXPjr1GHEAimPbIAf1kPFUhSASko72o2RNNWY8WO8gbyZWcN91b5Jeo7r1nxqtTpZqdElkaqRldgDlZaSnUG4ILm1uAO8dzD0FpotNQFVQFVRuCqLAD2EwwGFFKmlIblULfibC1z1MlS8xmPpfZERLIIiICIiAiIgIiICIiAiIgeSsduqoNGnQJ1rV6agcwjd6392mfnLI7gAk6AC5PSfPdoY36TiBiDcUqSstHf4y9g9UjqAAvQk/alsZuqcl1jUutiFUXPQAAEkngABvPSQ8RjHRkNShUUObLcDU6aebQ66A6mWbs/skr9fVH1h8oP+7Q8PxHj8uGvWx2GSojI6hlI1B/70PWaZct3058Ppp49+1N+mWGqVFPMo4HztaYDaF9Ajt6I5/ZZ2dktfC0XfxsyIbnecwvc9bTDZ2Jq1E7xcOSpZgpV08SBiA1mIte0jHm2jL6XX7co067+VAg4Fwf0QEH5kSVs/Y+V+8di72tnb7IO8Ig0QempsLk2nUY1f+HqE9Go/wBXmLVq40GEqH89AD3OeTcpfdTjxXH1G5UEwY3kZ6GOfy06CbvPUdj8kT+s209gVH/9RW0+CiGpg/icksfbLK3OLziyvtDxO0UQmmLu/BF5/ebcu7iZN7M7PBAxjNmeqgK7wtOm1mCIDrfdmJ1JHC1hyKOGTD5qNRcgDsUqHyOhJK3c/bsQDc3Nr6zudmcSvdmmCCEdlUjUFT4hY9M2X8sy8rbqt8eOYzcd6JjmE9kpexEQEREBERAREQEREBERAREQI2Mwq1Uam18rAg2NjY9ZCwmwqVNg/idgbgsQbHmAABfra86sQiyV7MHW4I5iZxCVTTZmJVBh0C5FGRalwCqbvJxYDduH7mwYRQiLTVMqqoVVG4KosAJLiVk0m3bAOJkGE9tFpZBeezy09gYkXmPdDlNkQNfdCZZRMogIiICIiAiIgIiICIiB/9k=;fillColor=#F2CC8F;strokeColor=#E07A5F;fontColor=#393C56;" parent="1" vertex="1"><mxGeometry x="562" y="625" width="24.51" height="28" as="geometry"/></mxCell><mxCell id="xYVlEia6IdGVw25vf1dU-72" value="" style="shape=image;verticalLabelPosition=bottom;verticalAlign=top;aspect=fixed;imageAspect=0;image=data:image/jpeg,/9j/4AAQSkZJRgABAQAAAQABAAD/2wCEAAoHCBYVFRgSFRUYGRgZGBwZHBkcHBgZHBoVGBwaGRoaGBgcIC4mHh8rHxgaJjgmLC8xNTU1HCQ7QDwzPy42NTEBDAwMEA8QHhISHjQhJSsxNDY0NDQ0NDQ3NDQ0NDQ9NDQ0NDQ/NDQ0NDQ0NDE0NDQ0NDQ0NDQ0NDQ0NDQ0NDQ0NP/AABEIAPAA0gMBIgACEQEDEQH/xAAcAAEAAgMBAQEAAAAAAAAAAAAABAYCAwUBBwj/xABEEAACAQIDBQYCCAMFBwUAAAABAgADEQQSIQUxQVFhBhMiMnGBUpEUI0JicoKhsQeSwVOiwtHSM0NUY7Pw8TRzg6Oy/8QAGQEBAAMBAQAAAAAAAAAAAAAAAAECAwQF/8QAJREBAQACAgIBBAIDAAAAAAAAAAECEQMhEjETBEFRYTJxFCJS/9oADAMBAAIRAxEAPwD7NERAREQEREBExJtqZwdo9rMNSuobvGH2U8WvIt5QfUwO/F58/wAX23rNcU6SIODMWc2/CMov7mcTGbYxFTz13t8KnIP7lj8yZPjVLnI+q1MSi73UepA/eZU6isLqwYcwQR8xPiGIw1M+J0Vj8TDN8yZ0uxGPOHxC2JFOq4Qpc5VDeFGCk2Bz29niywmcr7FERIXIiICIiAiIgIiICIiAiIgIiICIiAiJDx+NSihqVGsB7kngAN5J5CBLJlY2x2tp07pS+scaEg+FT1biegv1tKxtnb9XEErqlPggOrD77Df+Eaes5QAEtMfyyy5NekjaO0K2IP1zll+AeFB+UHX3vImQCbLzBwALk2HOX1Iytt9hmms6rqxty5k8gN5PSamxDNpTXT428vsN7ft1mS0QPEbs5Fsx5cgNwHQfrBr8tLIX1cWUbk58i/8Al+/DXjmKozjzIM6/iTxL+oElNNTi4K8DoZVaV9twlUMiuNzKCPQi83yv9hsV3mBw5JuVpim34qfgb9VMsEo6CIiAiIgIiICIiAiIgIiICIiAiIgaqrhVLE2ABJJ4Aakz5jtvajYioahJyC4ReS87fEd5+XCfSsbhhUpvTJIDqVJG8BhbSfHMfhq9Go9Cq4DKbqQls6X0dSWOnTgdPWcdbUz3rpI9JorYlE8zi/LefZRrIwpg+Znb1Nh8lsD7zOlTA0VVUdAB+0vthpsNV38i5B8T7/ZBr87TxMGL5nJcjUZtw9F3e++SESZkSdI21uZg0yaYOdII0O08XSDNdMamVXfQP4Z4m9GtSvqlZmA+7UAe/wDMWl2nyz+HuKyY16Z8tWkLfjQn/CZ9TlG8u49iIhJERAREQEREBERAREQEREBERAThdp9gJi6WXRai606lrlG/qp3EcRO7PDA+I1aTozU6iZHQ5XW99eanipGoP/iZJPofbDs936d9TH11MG24Z03mmx/UHgehM+dob6j/ACPoQdx6S+N2wzx0lIZkZqpNNt5dm1uJqcTewmp1kERmEwA3za4mFpC7DCYs0cThqw0CVlDHd4H8D39jPugnwpcC1c9wo1YWJ4KvFz0F/c2EvmG7aU8Opw1fvHrUmyXVCe8QAFKhY2UFlIvrvDTO2b02x9L1EpVH+IVM+bDYhdf+U2nOy1CZZ9lbUpYhO8pOGXceBVhvVlOqkcjCyfERAREQEREBERAREQEREBERAREQMSJ8x7ZbM7jEd4otTrknTctYasPzAZvUNzn0+cvtBspcTQeiTYkXVvhddVb2IEekWbmnykGxm8GRkzC6OtnRijryddD7cR0Im4PNZXNZpk5mJOkwdwN5kzAbPq1/9mlx8bXVB1zcfQXkZZSeyY2+kBpvwGzamIPgFk41GBy/l+M+mnMiWfA9mKaEGqe9fkRZB6Jx/MT7TvsgAAFunT0nPnzfbF0YcX5cvZ+zEoplRTc2ux1dzzY/sNwlQ7aBBiUCHxmmc45AN4CTz1eWPtB2iTD3poM9Yjwp8I+Jz9lZRKVBizO5zO5LO3Nj+wG4DkJXixyuXktnlJNMGoWUlc2YAkHMb39zYy8fw2rfX4hM3+7pOy8MxNRc3rZQPYSpXCgsxsBqTyE+j9hNjijSasbd5XIdrfZQCyIeoBJPUkcJ0Vnh3drZE8nsq0IiICIiAiIgIiICIiAiIgIiICImuo4UFibAAkk8AN5gUDtxsQrWTEpYLUIp1L3sG3U305nwn1WRsJ2XufHVJ6KuTTlckn9pz+0+3fpjWUkUB5Rqucjc7fuB7+nT2V2mp5FWqWV1ADHKSGIA8QIBGvKUz8pOkTwt/bt4HYlCmQy00JH2m8bezNe06lSottLkysV+1dJQcodyOSsL+hYAfrONiu1eIcZURKQ5nxvb08oPzmMwzyWtxn3XHHbRp0U7yq6ou7xEC55AcT0EqO1+1Lv4MPdU+Nh4jf4VPl9Tr0ErrUszmo7O7/G7Fj+Xgo6C0LVv5Bm+9uQW+8d/tebYcMn8lMuX/lkUCgsTvOZnY3JJ4sTNq1FRc7GwPPT00kNGZ2y00as44hGZFP3VUE+9ieoll2bskUmFSrh8RVqDUMaThE4HInA9TczaWRn4291hsnYT1WFaqMqDyUyNSeDv15Lw3791kobOenrRqGmb30AKE/eTcfUWMmYLFI+isLjepuHHqpsR8p0VQS0kqlyuP6acHtplsuJUJfQVFuUJ+9fye+nWd5SDrOM9G9xwPCc6pj3woCohqI7BEQsF7t2NguZvsHh8J03EWrljrtrhyeXVW2JxMM2NYAuMPT+79ZUPuQVH7yWMUyf7VQBp41N1udPEDquvHUdZntrp0IiJKCIiAiIgIiICIiAiIgJXu2zMMFVychm/9ssBU9smb2lhmFRQQQRcHQjpA+DM9mzEEgqApXWw4i3XnJSDTlLftrsrQOIp0qOaldXqPlN1CCyqqo11S7NfQbkYenp7Ep/xFb/6f9EvjusMtY3W1Jeq17KjMfYD5sRMKtRh5mRL7h52PoNBf5y+r2Ko/aao3q5X9EyzpYTs/Rp+RFU8SBqfVt5k+NV8sXznDbLqVbMEbL8dXRfy0xvPqB6yzdnuzS1mOds6UzlY7gXFiURenEm++wsbkWPH0lp03qHciMx9FBM4+3kqYbY7d1cOaal2XQhqjA1X6HxMb8JXLprx6yW3BYnDKe4ptTUj7ClQfkN86Qn5RxFdVFJ6LVe+8TOTZQr5vB3RU3tl334z9QbGLmhSNTzmmpf8RUXlJWtj3H7Np1gM66jyuNHU81Yag/vxnDw+JdKrYep50AZX4VKZ0D9GB0I567iJaZwu09AZUr7mp1FF+aVGFNlPS7K35BLY3VZ54yxJU3F5F2jhVqIyNuYWuN4PAg8wdfabcM3hnA7R9p1wzd0q5nyhtTZQDcC9tSdDpNrrXbmm99LRsTFGpRUt51JRuroSpI6G2YdDJzoCCCAQRYg7iDvBE+X7A7YutazqpSrVQMAGBUvkphlJJvwJFtdZ9TmFmnXjdx817N7exSbWrbLqMalJQxQsBmRAA6WbewysFN7m/GfS5xNnYemcViaoRc4KU2a3i0po+XNys66ek7ciLUiJGxGKRCqsbFjZRYm50HD1ElCTERAREQEREBERAREQK61O+LqueFOkg9jUY/8A7Hyk60juLYioOaU2/wCov+GSZth6cnL/ACpERLs3P25hy+HrU13tTdR6lSBOjs8JVw6ZlDI9NbqdQVZRoee+eTmbHxH0eocJU0VmLUG4ZSbmnfmCTYcvSZck+7o4cvcY4bsHgKdQVVw65gQygliqsNxCk2FpZ7RPZm3eSv8AbGp9QqDzVK1JVHOzq7f3UY+07ruACSbAaknlKZicZ9LxCsmtGlfI1tHqNoXXmoGgPHM0e7pGV1Np+IxfdU89rklUVfid2CIvS5I14SPtDsZTr+N6r96bZnFsthuUIRYKOHHmTJO1MKz0SqWDqUdL7s6OrqD0JUA+sxobZxDv3K4Xu6mXMS9RCgW9iwyXZteFh6iTyeW5pnxSWXftHwfYTDJdmzu32WZrZDwZAtgGHBt45zdsLtCXorTPjxKu9IqOJpO1M1X+BDlzXPoLmwnKpbWxteuuFWrh6ZdKzZhTdmRaNXuWy/WWZjvF7W5G0uGydmJhqa0qYNhvJ1ZmJuzOeLEkknrKTba6nTLZuE7tbE3djmdrWzOQAT6WAA5AAcJOnM21tHuKRqAZmuFVRclmPQamwuxtwUzDD42oyB1FOqhFwUbKSPuhrqfdhLIdWQtpVSqqdAM4DMRfItj4reoAvwzX4RTxyuGCauoJ7tro1+FwRcAnTNqPWNm1KjJequVrnhl8PC65mseG/hfS9oGeBqllJJvYkBrZcyjc1v0vuNrjQyXEQEREBERAREQERPDA4u0bLiKbXHjRkI4kr4109M8kSlYgNUr1augrU8QchcmyqjWFO41VXTl8d7HdO2naOkule9E7vH5D+GoPCfQkHpNsep25OSy5WR2omqhiUcZkdWB4qQRb2m2WUJrxFBXUo6hlPA/05HrNkRSIdJa9IWSoKijctW+YDl3g1P5gT1mDbWxO76PTB61G/wBE6E8lfCNJy5RwsRha+INsQwyf2SAqp/Gbkv6aDmJ08NhFQAAbt3SSokzGRW53L2xKyDjsK7MtSk4R1BUMVzqVaxKutwSLqDoQdJPMxaLN9UmVl3FV2JsN6GMpVqlbOzGogAXIqowqVXspJuWexJvwEv8AK7XrIlakzMFVc7EsQAAEy3JO7zTs/S0NM1VYMoUtmUgggC5sR6THKSXUdOGVym6gg95iGP2aICjl3rjMx9kKi/32ntfZSkl0ZqTnUslhmPNlIKsepBPWQMDtAqvdomep56hJyotR/GVL2NyM24A2GW9riZ4nH1UUu9SiijUkqzAfmLr+0r5Se2nx5XuNe06GIHdsaiErVphStNlezOoYZu8IClb5tN19OVmld2XiziGpMw0VTVJtlBzZkpHKSSMy5nsTcaSxSUdzqvYiICIiAiIgIiICeGeyJtHHJQptVqNlRBcnpApHaagPpqmk5pu1ItVsAytZlSlnTmfGLggkIOQmzCM5BWoFvuuvlcc8p1Hob7t5mvAU2qM+KdSHrENY70prpTQ+gJY9XadNEnVx42Y9vN585crpx32RTzZ0U034tSY0yfULo3uDJdDF4mnazrWUC1qgCP650GU+mT3EmtTE1MglrhGc5cokYfb6EhKoak50Ae2Un7ri6t6Xv0nXVgdRK3WpKRlZQykaggEH1Eg4d6mHYvRLOgGtAm+n/KY6g/dJsekpcbGuOcy99LpEibNx6V0FRGup9iGGhVgdQQdCDukuRF6SNtDE93Tepa+RGa34QT/SSZE2rSz0aifEjr81Iik9qTjts4lPGa9jxUImQHiAPNb1M5zdrsTVuhqooCFy1NQHsCBYliQu/lIOPxa1UUG2qjwEEsdLkZBqbcpDpdm8RU8YK0lIK5St2Kkg5io8u7d79Jlle+m2ON12zXab1XYVHFQI9lLnMyoyKRZbBc1z595l+7MvfZ+KI3Z64X+UA7vvXPvKPs/YRAVs4s7qL5dLM6optm5W+Vp9Wp7HWhg6mHQkkpUJY2BZ3DEsQNBqd3ASuXrtph3dz+nI2Zs4MatTvKi569W6q9l8Dsg0tp4UG60Y3B0lOTIWsMzsSzuEJyhULEkO7eEWt9o7xN+BZ0VxkbV3qK58KFKpNTMXOigFyCN/hOh0vK2JhO8IqEkorZgSMve1f7TKdQijRB0vwBmMxtvbqucmMkdTZGENNLvbO5zPbcCQAFHRVAHtedKImrEiIgIiICIiAiIgeSldrG7/ABFPCHyU1Fd1+NsxWmrdLqzewl1lIcE4zFOeD00H4VpI4/V2luObykrLnyuOFsS0FplmnnSY9Z3PJZsZgRCmYuTvgR2a4vI9DEKSQCLg2I62vb5EGc/ZeNvnoWZ6iO4KqCzZCxZCeQysupnmCwpGJqO6MhCoQrZdM4KlgFJ3hANevOY+c3JHR8dktvpPw+LGGrh7HJW8LhQSRWUEo4UC5zKCD+FeZljXaKEX8f8AI4/dZU9uI3dsyedBnX8aeNf1FveXrZdYPTV13MoYehF5z83JcMup7dPBjM8e/cQjtBOZ+TX+Vp59PU7lqN6Uqh/wztxaZf5F/Db4cVdfB5iSuHYE72IRL+tzm/SaMZRp0EapiKioqqWKoSWKqCTrbMdBuUA9ZaZwe2JUYSqp0NVRRuN/1pFPQ9AxPtKfLlldLTCY9qZhMGXFCklqbPUFQDKCECsaxUqpF1FguhG8S4bW2u9Kky1EUu4yUypOV6r2VVIOqG7A210B10nJ2Fsk1neqtR6YpgUkZMvm0aobMCrDRF3aFWnm0qbpWao9Z664WmaioVpopxNS6UUBUC7WzbzpnQzbPe9T0cU/13fd7dDZGF+kEo5zUcMVoqn2alWkozu/xBWsoU6XViQdLWyc7YuA7iglK92UXdt2aoxLVHNuLMWPvOjCxERAREQEREBERAREQPJUsQmXE4j7zo/saaLf5oflLaZUttkrjVHCpQuPxUn8X6VVl+O6yjD6ib46yvPGHCAZ7O15bEC2kMZ6DxngECLSJo1TXRM2ZcjquUMwGqsLkAldRbkx5AHWrtUqPXZSmcKiqSL5EzWJtpclm/STGE1sLCZfHj5eTb5srh4fZHxKgqQeKkfMTtdiyTgsMW3mihP8onDxz5Ueodyox+Sky27Jwwp0adMfYRV/lUCcn1f2df0fqpsRNdWsqjMzBRzJAH6zkdjZKT2wx2asmHQ3KeMjeO8ZSEzdFTO7cQMvMSwvtXMD3KGobXzeWn6modGH4c05PYfZ4aiuNqeOtXDOzndlc3ARbeFSoXrYKCTYTTine0ZTc024DbCUcOi08PiXUKMpWk16hOubXdmJzXNt8hKhaphaVRcr4iq+Lqo2/wCqVWRPVGNEf/HLGdnshvQYAf2beT8hGqe11+7Im0HVgpqK9J0bOtTLmVGAIJzLdcpBKkNa4J3G03Rt34nK2BtM16WdlykOyG2qsVNs6HijCxHrbhOrAREQEREBERAREQEREDyV3tYoUUaxsMlUJfmtUGnl/nKH8ssUqv8AEUH6ExW11qUWF+lVJM6u1c5vGxpzTMNNV+E8Z7Tu28fTa5gGY757aSh7aeuBa0wd7SDtHaApJnYFiTlRF1Z3O5VHP9tSdBItkTMbb09rp31anhF4kVKlvs0kYHX8bAL6ZuUvKiUTs539HvHagHq1SGdy4CqAPDTXQnKoJ4am54zrPjMW39lTHMZqh9gQvznm8sy5MtydPW4pjx4ybWa8gY6tQQq1UpmHlzZS2vBb68OEr1XDVXPjr1GHEAimPbIAf1kPFUhSASko72o2RNNWY8WO8gbyZWcN91b5Jeo7r1nxqtTpZqdElkaqRldgDlZaSnUG4ILm1uAO8dzD0FpotNQFVQFVRuCqLAD2EwwGFFKmlIblULfibC1z1MlS8xmPpfZERLIIiICIiAiIgIiICIiAiIgeSsduqoNGnQJ1rV6agcwjd6392mfnLI7gAk6AC5PSfPdoY36TiBiDcUqSstHf4y9g9UjqAAvQk/alsZuqcl1jUutiFUXPQAAEkngABvPSQ8RjHRkNShUUObLcDU6aebQ66A6mWbs/skr9fVH1h8oP+7Q8PxHj8uGvWx2GSojI6hlI1B/70PWaZct3058Ppp49+1N+mWGqVFPMo4HztaYDaF9Ajt6I5/ZZ2dktfC0XfxsyIbnecwvc9bTDZ2Jq1E7xcOSpZgpV08SBiA1mIte0jHm2jL6XX7co067+VAg4Fwf0QEH5kSVs/Y+V+8di72tnb7IO8Ig0QempsLk2nUY1f+HqE9Go/wBXmLVq40GEqH89AD3OeTcpfdTjxXH1G5UEwY3kZ6GOfy06CbvPUdj8kT+s209gVH/9RW0+CiGpg/icksfbLK3OLziyvtDxO0UQmmLu/BF5/ebcu7iZN7M7PBAxjNmeqgK7wtOm1mCIDrfdmJ1JHC1hyKOGTD5qNRcgDsUqHyOhJK3c/bsQDc3Nr6zudmcSvdmmCCEdlUjUFT4hY9M2X8sy8rbqt8eOYzcd6JjmE9kpexEQEREBERAREQEREBERAREQI2Mwq1Uam18rAg2NjY9ZCwmwqVNg/idgbgsQbHmAABfra86sQiyV7MHW4I5iZxCVTTZmJVBh0C5FGRalwCqbvJxYDduH7mwYRQiLTVMqqoVVG4KosAJLiVk0m3bAOJkGE9tFpZBeezy09gYkXmPdDlNkQNfdCZZRMogIiICIiAiIgIiICIiB/9k=;fillColor=#F2CC8F;strokeColor=#E07A5F;fontColor=#393C56;" parent="1" vertex="1"><mxGeometry x="562" y="674" width="24.51" height="28" as="geometry"/></mxCell><mxCell id="xYVlEia6IdGVw25vf1dU-74" value="SPA" style="rounded=0;whiteSpace=wrap;html=1;fillColor=#F2CC8F;strokeColor=#E07A5F;fontColor=#393C56;" parent="1" vertex="1"><mxGeometry x="743.5" y="794" width="61" height="29" as="geometry"/></mxCell></root></mxGraphModel></diagram></mxfile>